<?xml version="1.0" standalone="no"?>
<!DOCTYPE svg PUBLIC "-//W3C//DTD SVG 20010904//EN"
 "http://www.w3.org/TR/2001/REC-SVG-20010904/DTD/svg10.dtd">
<svg version="1.0" xmlns="http://www.w3.org/2000/svg"
 width="3062.000000pt" height="1564.000000pt" viewBox="0 0 3062.000000 1564.000000"
 preserveAspectRatio="xMidYMid meet">
<metadata>
Created by potrace 1.16, written by Peter Selinger 2001-2019
</metadata>
<g transform="translate(0.000000,1564.000000) scale(0.100000,-0.100000)"
fill="#000000" stroke="none">
<path d="M10030 14838 c-41 -4 -109 -11 -150 -14 -41 -3 -79 -10 -85 -14 -5
-4 -41 -10 -78 -14 -38 -4 -76 -11 -85 -15 -9 -5 -51 -19 -92 -32 -41 -12 -79
-26 -84 -31 -6 -4 -18 -8 -28 -8 -10 0 -18 -4 -18 -10 0 -5 -7 -10 -15 -10 -8
0 -15 -3 -15 -7 0 -5 -21 -17 -48 -27 -26 -10 -61 -30 -79 -42 -17 -13 -36
-24 -42 -24 -5 0 -16 -8 -23 -18 -7 -10 -29 -28 -48 -39 -44 -28 -210 -197
-210 -215 0 -7 -9 -19 -20 -26 -11 -7 -20 -17 -20 -23 0 -6 -13 -31 -30 -56
-16 -24 -30 -51 -30 -59 0 -8 -9 -25 -20 -36 -11 -13 -18 -29 -15 -39 11 -35
-18 -33 -49 3 -17 19 -44 43 -61 52 -51 28 -69 40 -87 59 -9 10 -20 19 -25 19
-4 1 -39 16 -78 34 -86 40 -165 67 -173 60 -3 -3 -12 0 -21 8 -9 8 -34 16 -56
19 -22 2 -48 7 -57 11 -21 9 -276 1 -343 -11 -28 -5 -57 -13 -65 -18 -8 -5
-23 -8 -32 -7 -10 2 -18 -2 -18 -7 0 -6 -11 -11 -24 -11 -14 0 -28 -4 -31 -10
-3 -5 -14 -10 -23 -10 -15 0 -180 -77 -192 -90 -3 -3 -23 -15 -45 -27 -64 -35
-120 -81 -244 -203 -130 -127 -133 -131 -273 -339 -10 -14 -18 -33 -18 -43 0
-9 -3 -18 -7 -20 -13 -5 -113 -211 -113 -230 0 -10 -4 -18 -10 -18 -5 0 -10
-10 -10 -22 0 -13 -7 -36 -15 -52 -8 -15 -15 -37 -15 -47 0 -10 -5 -21 -10
-24 -6 -4 -9 -19 -8 -35 1 -15 -4 -35 -11 -44 -7 -9 -11 -25 -8 -36 3 -11 -1
-27 -9 -34 -8 -8 -14 -27 -14 -43 0 -16 -4 -33 -9 -39 -13 -12 -21 -116 -27
-323 -4 -132 -2 -176 7 -182 8 -5 12 -25 10 -53 -1 -27 2 -46 9 -46 5 0 10 -4
10 -10 0 -16 -33 -50 -50 -50 -8 0 -21 -9 -28 -20 -7 -11 -17 -20 -24 -20 -14
0 -118 -78 -136 -103 -7 -9 -27 -24 -43 -32 -16 -9 -49 -35 -72 -58 -24 -23
-60 -55 -81 -72 -51 -41 -380 -372 -385 -388 -2 -6 -30 -39 -63 -72 -33 -33
-64 -67 -69 -76 -5 -10 -42 -57 -84 -105 -41 -48 -75 -93 -75 -100 0 -7 -6
-17 -14 -21 -19 -11 -96 -115 -96 -129 0 -7 -3 -14 -7 -16 -17 -7 -81 -99
-107 -153 -8 -16 -25 -43 -38 -60 -22 -29 -58 -93 -114 -205 -16 -30 -30 -57
-34 -60 -9 -9 -50 -97 -50 -109 0 -6 -3 -11 -8 -11 -7 0 -22 -31 -45 -90 -19
-49 -72 -155 -79 -158 -5 -2 -8 -16 -8 -30 -1 -15 -7 -38 -15 -52 -8 -14 -14
-35 -15 -47 0 -13 -4 -23 -10 -23 -5 0 -10 -11 -10 -24 0 -14 -4 -28 -10 -31
-5 -3 -10 -14 -10 -24 0 -21 -22 -71 -32 -71 -5 0 -8 -16 -8 -35 0 -19 -4 -35
-10 -35 -5 0 -10 -9 -10 -19 0 -11 -4 -23 -10 -26 -5 -3 -10 -24 -10 -45 0
-21 -5 -42 -11 -45 -6 -4 -8 -12 -6 -19 3 -6 -1 -20 -9 -31 -7 -10 -11 -28 -8
-41 3 -12 1 -25 -5 -28 -6 -4 -11 -19 -11 -34 0 -15 -7 -38 -16 -50 -9 -13
-13 -29 -11 -36 3 -8 -1 -23 -9 -34 -8 -11 -14 -31 -13 -44 0 -12 -5 -50 -11
-83 -6 -33 -13 -78 -16 -100 -3 -22 -9 -49 -14 -60 -5 -11 -11 -49 -14 -85
-13 -171 -24 -244 -40 -255 -13 -10 -16 -32 -16 -109 0 -54 3 -95 8 -93 4 3 7
-86 7 -198 0 -112 -3 -201 -7 -198 -5 2 -8 -39 -8 -92 0 -54 4 -94 9 -91 18
11 22 -10 48 -267 3 -31 9 -60 14 -63 5 -3 9 -30 9 -60 0 -30 4 -54 9 -54 4 0
12 -37 16 -82 4 -46 11 -86 16 -89 5 -3 12 -22 14 -43 3 -21 10 -46 16 -58 6
-11 8 -22 5 -26 -3 -3 1 -16 9 -28 8 -13 12 -30 9 -39 -4 -9 -2 -26 3 -38 23
-49 33 -79 33 -97 0 -11 4 -20 9 -20 5 0 12 -15 15 -32 16 -79 19 -88 27 -88
5 0 9 -11 9 -24 0 -14 5 -28 10 -31 6 -3 10 -17 10 -30 0 -13 5 -27 10 -30 6
-3 10 -12 10 -19 0 -8 8 -31 17 -52 9 -22 18 -45 19 -52 1 -6 14 -35 28 -64
14 -29 26 -57 26 -62 0 -15 63 -140 73 -144 4 -2 7 -12 7 -23 0 -10 5 -19 10
-19 6 0 10 -5 10 -10 0 -12 25 -65 58 -123 12 -21 22 -44 22 -52 0 -8 4 -15 9
-15 5 0 12 -12 15 -27 4 -14 20 -45 37 -69 16 -23 29 -45 29 -49 0 -3 11 -21
24 -38 14 -18 30 -43 36 -57 10 -23 47 -80 70 -107 5 -7 10 -16 10 -22 0 -5 4
-11 8 -13 5 -1 20 -19 33 -39 55 -83 114 -166 143 -201 17 -21 49 -60 71 -88
22 -27 73 -83 113 -124 39 -40 72 -78 72 -85 0 -12 252 -265 268 -268 5 -1 40
-32 78 -68 37 -36 72 -65 77 -65 4 0 19 -13 32 -28 13 -15 36 -34 51 -42 15
-8 37 -23 48 -32 74 -62 120 -96 153 -113 21 -11 44 -28 51 -37 7 -10 17 -18
22 -18 5 0 46 -25 91 -55 45 -30 84 -55 87 -55 3 0 19 -11 37 -24 17 -13 67
-41 110 -62 44 -21 82 -41 85 -44 3 -3 21 -12 40 -20 45 -17 46 -19 53 -57 5
-22 2 -37 -9 -48 -14 -13 -15 -39 -11 -180 4 -104 2 -165 -4 -165 -5 0 -12 7
-15 15 -4 10 -20 15 -51 15 -38 0 -44 -3 -39 -17 7 -17 -9 -33 -31 -33 -7 0
-13 7 -13 15 0 10 -10 15 -30 15 -23 0 -30 -5 -30 -19 0 -27 -21 -37 -35 -18
-17 24 -43 21 -47 -5 -4 -25 -28 -37 -28 -14 0 18 -25 22 -35 6 -3 -5 -14 -10
-23 -10 -9 0 -34 -5 -54 -11 -27 -7 -38 -15 -38 -29 0 -11 -7 -20 -15 -20 -8
0 -15 4 -15 10 0 16 -194 -89 -202 -109 -5 -14 -13 -17 -32 -14 -23 5 -26 2
-26 -22 0 -20 -4 -26 -16 -21 -18 7 -60 -30 -66 -59 -2 -11 -10 -19 -16 -17
-7 1 -12 -2 -12 -8 0 -14 -27 -12 -33 3 -3 6 -6 2 -6 -10 -1 -24 -16 -39 -26
-24 -9 16 -35 1 -35 -21 0 -13 -6 -18 -17 -16 -20 4 -103 -75 -103 -98 0 -8
-4 -14 -10 -14 -5 0 -10 -6 -10 -13 0 -18 -24 -67 -32 -67 -5 0 -8 -15 -8 -34
0 -19 -5 -36 -10 -38 -6 -2 -11 -36 -12 -75 -1 -59 4 -82 23 -120 29 -56 58
-93 74 -93 7 0 20 -8 29 -19 26 -28 96 -44 173 -38 70 5 163 38 163 57 0 6 6
10 14 8 7 -2 31 15 52 37 22 22 46 41 54 43 8 2 20 8 25 15 29 34 136 43 173
14 8 -6 12 -42 12 -110 0 -126 18 -182 91 -293 42 -63 124 -127 204 -159 29
-12 54 -30 60 -43 6 -13 19 -22 32 -22 30 0 30 17 1 23 -21 4 -20 4 3 6 15 0
43 -6 63 -14 29 -12 40 -13 56 -3 17 11 22 10 30 -2 8 -13 10 -12 10 3 0 12 8
17 29 17 17 0 33 5 36 10 3 5 15 10 25 10 11 0 36 8 57 17 46 21 177 123 169
131 -3 3 0 12 8 21 27 31 55 91 50 106 -4 9 0 15 9 15 8 0 17 7 21 15 3 8 1
15 -4 15 -6 0 -10 9 -10 20 0 14 6 20 18 18 13 -2 18 5 20 36 2 22 -2 42 -8
46 -16 10 -3 50 16 50 11 0 14 15 14 59 0 33 5 63 10 66 6 3 10 14 10 24 0 10
10 27 23 39 45 43 154 16 177 -42 5 -13 14 -27 20 -31 6 -4 23 -32 38 -63 14
-32 29 -59 33 -62 3 -3 10 -16 14 -30 4 -14 19 -42 31 -62 13 -21 24 -42 24
-46 0 -21 156 -166 199 -185 65 -30 125 -44 147 -36 11 4 30 8 44 8 14 1 44
10 65 21 44 22 130 109 140 140 4 11 11 18 16 15 5 -4 9 0 9 9 0 8 5 16 12 18
18 6 20 288 2 288 -17 0 -18 32 -2 48 9 9 9 12 0 12 -7 0 -12 8 -13 18 -1 29
-34 77 -57 80 -15 2 -22 12 -24 35 -2 24 -9 33 -28 37 -19 4 -26 13 -28 37 -4
43 -102 137 -133 128 -24 -8 -38 7 -39 40 -1 11 -15 31 -31 44 -16 13 -29 19
-28 15 1 -5 1 -15 0 -22 -2 -20 -21 -4 -21 17 0 27 -26 46 -34 26 -7 -20 -26
-10 -26 14 0 10 -7 24 -15 31 -12 10 -15 10 -15 -4 0 -9 -4 -16 -10 -16 -5 0
-10 11 -10 24 0 33 -16 41 -25 13 l-8 -22 -4 25 c-6 27 -29 49 -55 50 -9 0
-18 4 -20 9 -5 14 -58 25 -58 12 0 -6 -7 -11 -16 -11 -11 0 -15 6 -11 20 3 11
1 23 -4 26 -5 3 -9 -2 -9 -10 0 -9 -7 -16 -15 -16 -9 0 -15 9 -15 23 0 16 -9
26 -29 34 -26 9 -30 8 -34 -9 -8 -28 -31 -17 -35 15 -4 32 -32 37 -32 6 0 -12
-5 -19 -12 -16 -7 2 -12 14 -11 26 3 25 -15 28 -33 4 -11 -15 -15 -16 -23 -4
-5 8 -7 20 -4 28 3 9 -3 13 -21 13 -16 0 -26 -6 -26 -15 0 -8 -7 -15 -15 -15
-9 0 -15 9 -15 25 0 18 -5 25 -19 25 -10 0 -21 -7 -25 -15 -9 -25 -36 -18 -36
10 0 20 -5 25 -25 25 -14 0 -25 4 -25 9 0 11 20 26 35 26 6 0 11 10 13 22 2
13 -1 23 -7 23 -14 0 -14 47 -1 55 6 3 10 14 10 23 0 9 5 24 10 32 7 12 12 12
22 2 6 -6 25 -12 40 -12 15 0 28 -4 28 -9 0 -5 15 -11 33 -14 17 -3 50 -10 72
-17 45 -13 147 -39 185 -46 14 -3 34 -9 45 -14 11 -4 47 -13 80 -20 33 -6 76
-15 95 -20 90 -22 197 -39 280 -46 36 -3 74 -9 85 -14 34 -15 208 -23 525 -23
312 0 506 9 516 24 3 5 38 9 79 9 41 0 77 5 80 10 3 6 28 10 55 10 27 0 51 4
54 8 3 5 23 9 45 10 21 1 51 6 66 12 14 5 39 10 55 10 16 0 31 4 34 8 2 4 19
9 36 10 18 1 40 7 50 12 27 15 40 12 40 -7 0 -16 2 -16 11 -3 8 12 10 10 5 -9
-3 -16 1 -29 11 -36 13 -10 13 -15 2 -32 -9 -16 -10 -25 -2 -35 8 -10 8 -18
-1 -31 -16 -21 -26 -22 -26 -2 0 8 -9 15 -20 15 -15 0 -20 -7 -20 -25 0 -29
-20 -34 -27 -6 -6 23 -35 17 -31 -7 2 -8 -3 -17 -9 -19 -7 -3 -13 2 -13 11 0
9 -7 16 -15 16 -9 0 -15 -9 -15 -24 0 -31 -16 -42 -28 -20 -9 15 -13 15 -48
-4 -22 -11 -74 -37 -116 -56 -58 -27 -78 -41 -78 -56 0 -21 -22 -39 -28 -22
-5 17 -32 2 -32 -18 0 -22 -16 -35 -25 -21 -10 18 -35 0 -35 -25 0 -24 -14
-32 -25 -14 -10 17 -54 -20 -57 -48 -2 -22 -8 -27 -28 -26 -32 1 -120 -80
-120 -111 0 -23 -28 -55 -48 -55 -7 0 -12 -12 -12 -26 0 -19 -4 -25 -15 -20
-10 4 -17 -3 -20 -22 -10 -45 -55 -133 -65 -127 -14 8 -13 -8 1 -22 13 -13 4
-33 -17 -33 -14 0 -15 -25 -1 -47 5 -7 -1 -21 -13 -33 -28 -28 -27 -92 1 -119
12 -11 18 -24 15 -30 -8 -12 25 -88 51 -117 30 -34 119 -100 149 -111 111 -40
124 -39 229 7 35 16 135 93 143 112 2 4 19 26 38 50 18 24 34 48 34 54 0 6 10
22 23 36 13 14 41 60 62 102 84 167 191 239 251 169 16 -18 24 -41 24 -64 0
-20 7 -42 15 -49 12 -10 14 -24 9 -60 -5 -38 -3 -48 11 -53 13 -6 15 -15 10
-51 -5 -28 -3 -46 4 -50 6 -4 11 -17 11 -30 0 -38 76 -162 126 -206 66 -58
203 -130 248 -130 13 0 41 -6 62 -13 32 -12 44 -12 69 -1 17 7 47 13 67 14 20
0 39 4 42 9 3 4 27 16 53 26 26 10 61 28 76 39 58 43 117 99 117 111 0 7 7 18
15 25 8 7 15 20 15 30 0 10 6 20 13 23 18 7 37 73 25 85 -7 7 -3 14 11 21 16
9 21 21 21 51 0 21 -4 42 -10 45 -5 3 -10 24 -10 46 0 21 5 39 10 39 6 0 10
11 10 24 0 32 12 39 74 39 56 0 82 -10 136 -55 19 -15 39 -28 43 -28 5 0 32
-18 59 -40 60 -48 129 -70 215 -70 158 0 263 108 263 268 0 64 -3 76 -22 93
-13 10 -17 18 -10 19 14 0 17 30 3 30 -11 0 -41 57 -41 77 0 7 -11 19 -25 25
-15 7 -29 24 -34 44 -11 40 -41 76 -41 50 0 -9 -4 -16 -10 -16 -5 0 -10 7 -10
15 0 22 -47 64 -94 85 -21 10 -56 37 -77 60 -22 24 -39 37 -39 31 0 -6 -4 -11
-10 -11 -5 0 -10 9 -10 19 0 23 -23 34 -40 18 -10 -9 -14 -9 -17 1 -3 6 -14
12 -25 12 -14 0 -18 5 -14 18 5 15 -6 25 -55 50 -51 27 -64 29 -81 19 -16 -9
-22 -9 -25 1 -3 6 -14 12 -25 12 -15 0 -18 5 -13 19 8 25 -15 39 -27 17 -12
-22 -28 -20 -28 4 0 23 -25 27 -34 5 -9 -24 -26 -17 -26 10 0 28 -24 35 -34 9
-8 -21 -29 -6 -23 17 7 25 -30 26 -48 2 -15 -21 -38 -8 -30 18 5 16 1 19 -24
19 -18 0 -34 -7 -39 -17 -13 -23 -46 -9 -39 17 5 18 0 20 -60 20 -49 0 -69 -4
-78 -16 -9 -13 -16 -14 -29 -7 -10 6 -44 8 -75 6 l-56 -5 3 119 c2 65 5 124 7
131 3 6 15 12 27 12 13 0 47 14 77 30 30 17 59 30 64 30 6 0 70 29 144 65 73
36 137 65 142 65 5 0 11 3 13 8 2 4 39 25 83 47 44 21 94 49 111 62 17 13 34
23 37 23 4 0 28 15 54 33 27 19 55 37 63 40 8 4 35 23 60 42 25 19 73 53 108
76 34 22 68 49 75 58 18 26 79 53 91 41 5 -5 27 -10 47 -10 21 0 40 -4 44 -9
3 -6 24 -9 46 -9 22 0 46 -5 52 -11 15 -15 279 -15 294 0 6 6 32 11 57 11 25
-1 46 3 46 8 0 6 18 10 39 10 22 0 43 5 46 10 3 6 15 10 26 10 10 0 27 4 37 9
9 5 37 15 62 22 42 11 118 47 130 60 3 3 23 13 45 23 22 9 51 23 65 29 30 14
110 66 128 83 6 7 21 16 32 19 11 3 20 10 20 15 0 5 13 16 29 25 16 8 51 37
77 65 26 27 52 50 58 50 14 0 186 171 186 185 0 6 20 31 45 55 25 24 45 50 45
56 0 7 12 23 28 36 44 38 182 233 182 258 0 6 5 10 10 10 6 0 10 6 10 13 0 6
17 35 38 62 38 52 82 131 82 148 0 6 16 34 36 62 19 29 37 65 39 81 5 41 -15
114 -31 114 -19 0 -28 20 -15 33 19 19 13 38 -31 96 -24 31 -45 58 -48 61 -3
3 -20 22 -38 42 l-34 36 59 28 c32 15 84 45 116 66 32 21 60 38 62 38 2 0 18
13 35 29 48 43 69 61 75 61 11 0 275 274 275 285 0 8 10 22 23 32 12 10 35 35
50 56 16 20 39 48 53 62 13 13 24 28 24 33 0 4 20 37 45 72 25 35 45 70 45 77
0 7 4 13 9 13 5 0 14 15 22 33 7 17 15 34 19 37 16 14 126 250 117 250 -7 0
-4 7 6 14 9 7 17 18 17 23 0 6 14 40 30 75 17 35 36 87 42 116 7 29 16 52 20
52 5 0 8 20 8 45 0 25 5 45 11 45 6 0 9 16 8 39 -2 21 3 46 9 54 7 8 12 33 11
54 -3 44 5 63 27 63 19 0 19 76 -1 96 -12 13 -13 19 -3 37 9 15 14 85 16 209
3 155 1 191 -11 209 -16 22 -12 54 4 43 5 -3 9 35 9 85 0 50 -3 90 -7 89 -23
-4 -43 15 -37 37 3 13 1 26 -5 29 -6 4 -11 20 -11 36 0 16 -4 32 -10 35 -5 3
-10 24 -10 46 0 21 -4 39 -10 39 -5 0 -10 9 -10 19 0 23 -54 181 -88 261 -42
98 -53 118 -67 130 -8 7 -15 18 -15 25 0 7 -13 26 -30 42 -16 15 -30 34 -30
40 0 7 -4 13 -9 13 -5 0 -13 9 -16 20 -8 26 -37 41 -88 45 -47 3 -83 -16 -92
-48 -15 -51 -90 -187 -101 -183 -15 6 -26 -18 -18 -39 4 -9 -1 -17 -12 -21
-24 -9 -63 -54 -64 -74 0 -22 -80 -102 -96 -96 -7 3 -31 -15 -54 -41 -22 -25
-40 -40 -40 -34 0 10 -56 -25 -80 -49 -3 -3 -17 -11 -32 -19 -16 -8 -28 -21
-28 -29 0 -9 -6 -12 -16 -8 -8 3 -46 -12 -86 -34 -85 -48 -118 -59 -118 -37 0
9 5 19 10 22 6 3 10 33 10 66 0 33 -4 59 -10 59 -6 0 -10 28 -10 65 0 49 -4
67 -15 71 -11 5 -13 16 -9 45 5 29 2 44 -10 58 -11 12 -14 27 -10 49 5 24 2
33 -9 38 -13 5 -15 15 -10 50 4 35 3 44 -9 44 -11 0 -13 8 -10 31 3 20 0 34
-9 40 -8 4 -15 21 -16 36 -3 48 -15 93 -24 93 -5 0 -9 13 -9 29 0 16 -7 34
-15 41 -8 7 -12 16 -9 21 3 5 2 15 -3 22 -13 19 -33 80 -33 100 0 9 -4 17 -10
17 -5 0 -12 17 -16 38 -3 20 -12 46 -19 57 -16 26 -5 55 34 88 20 16 29 31 25
41 -4 12 -2 15 9 11 10 -4 17 2 21 19 3 14 10 26 16 26 10 0 96 171 92 184 -2
5 2 12 9 17 16 9 39 78 32 95 -3 8 1 14 11 14 18 0 21 11 5 27 -7 7 -6 15 5
26 9 9 16 27 16 41 0 14 5 26 11 26 7 0 9 12 5 35 -5 27 -3 37 9 41 11 4 15
16 13 34 -1 15 4 35 11 44 9 10 12 29 8 50 -4 24 -1 39 9 47 11 9 15 32 14 88
-1 42 4 98 11 125 8 37 9 66 0 117 -6 37 -11 96 -11 131 -1 37 -6 70 -14 81
-9 12 -12 32 -9 57 4 30 2 41 -10 46 -11 4 -14 14 -10 40 4 26 2 34 -10 34
-11 0 -15 10 -15 33 0 33 -22 128 -32 137 -3 3 -21 37 -40 75 -19 39 -37 72
-40 75 -4 3 -12 21 -20 40 -30 77 -204 257 -304 315 -95 54 -122 62 -216 63
-90 2 -107 7 -89 28 8 10 8 22 1 44 -9 25 -8 32 9 44 17 12 20 23 17 63 -1 26
-7 51 -11 54 -4 3 -3 18 4 32 9 21 9 30 -1 42 -10 12 -10 18 0 30 17 20 7 100
-14 124 -12 13 -14 21 -7 26 17 10 13 42 -8 62 -10 11 -19 33 -19 55 -1 33
-86 216 -119 258 -7 8 -23 29 -35 47 -78 108 -173 213 -194 213 -4 0 -23 15
-44 33 -109 94 -131 108 -285 183 -38 19 -78 39 -87 44 -10 6 -25 10 -33 10
-8 0 -23 4 -33 9 -29 14 -87 31 -110 31 -11 0 -23 4 -26 9 -6 9 -51 17 -176
32 -97 11 -276 10 -365 -2 -168 -24 -165 -24 -165 4 0 14 -4 29 -10 32 -5 3
-14 25 -21 48 -6 23 -18 51 -27 61 -17 19 -16 19 10 2 25 -16 26 -16 30 1 6
26 -12 62 -34 69 -11 3 -18 13 -15 22 3 15 -27 67 -60 100 -7 7 -13 20 -13 29
0 28 -40 73 -66 73 -13 0 -24 -1 -24 -3 0 -16 47 -96 63 -109 12 -9 19 -19 16
-23 -8 -8 -69 53 -69 68 0 20 -60 87 -78 87 -9 0 -30 11 -46 25 -16 14 -35 25
-42 25 -8 0 -19 9 -26 20 -7 11 -16 20 -20 20 -3 0 -33 17 -65 38 -32 21 -78
47 -103 59 -108 51 -137 63 -153 63 -9 0 -19 5 -22 10 -3 6 -17 10 -30 10 -13
0 -26 4 -29 9 -3 5 -39 12 -78 16 -40 4 -79 12 -86 18 -7 5 -46 9 -87 8 -50
-1 -75 2 -75 9 0 6 -5 8 -10 5 -6 -4 -16 -3 -23 2 -7 4 -46 5 -87 1z m-50
-238 c0 -18 7 -20 55 -20 49 0 55 2 55 21 0 17 4 20 23 15 12 -3 32 -6 45 -6
19 0 22 -4 17 -20 -6 -18 -2 -20 36 -20 27 0 46 6 54 17 14 19 35 9 35 -18 0
-14 7 -19 30 -19 21 0 30 5 30 16 0 23 24 11 28 -14 2 -16 10 -22 27 -22 13 0
27 -4 30 -10 3 -5 17 -10 30 -10 13 0 27 -4 30 -10 9 -15 25 -12 25 5 0 8 7
15 15 15 11 0 15 -11 15 -36 0 -32 30 -98 51 -114 3 -3 10 -16 14 -30 10 -35
24 -50 46 -50 27 0 23 22 -11 65 -16 21 -30 45 -30 53 0 9 -8 24 -17 35 -10
11 -13 18 -8 16 6 -3 22 -11 37 -18 21 -11 31 -11 41 -3 16 14 27 6 27 -18 0
-10 7 -23 15 -30 10 -9 15 -9 15 -1 0 26 18 8 23 -24 3 -19 15 -49 27 -65 23
-33 60 -41 60 -13 0 13 6 11 29 -11 17 -16 40 -34 53 -40 15 -8 22 -20 20 -35
-1 -17 5 -25 28 -34 16 -6 31 -18 31 -27 1 -8 3 -22 3 -30 1 -8 13 -40 28 -70
14 -30 32 -74 39 -97 7 -25 19 -43 30 -46 20 -5 26 -32 9 -42 -15 -9 -12 -65
5 -81 20 -20 20 -123 0 -150 -16 -22 -20 -84 -5 -84 17 0 11 -25 -10 -38 -14
-8 -20 -23 -20 -46 0 -19 -4 -38 -10 -41 -5 -3 -10 -14 -10 -24 0 -21 -49
-119 -81 -161 -45 -60 -111 -129 -128 -135 -46 -15 -92 -135 -57 -148 7 -3 16
-18 19 -35 6 -28 7 -29 66 -28 42 1 61 5 61 14 0 19 20 14 21 -5 0 -11 3 -13
6 -5 2 6 11 12 19 12 8 0 14 10 14 25 0 14 5 25 10 25 6 0 10 -7 10 -16 0 -9
32 16 75 59 53 53 75 83 75 100 0 16 7 26 20 30 14 3 20 14 20 31 0 17 5 26
16 26 15 0 44 23 44 35 0 4 6 21 13 38 27 64 34 94 26 110 -7 11 -3 20 13 31
20 15 21 18 9 38 -12 19 -11 24 8 39 23 19 29 77 10 96 -13 13 5 53 23 53 9 0
9 3 1 11 -9 9 -9 16 0 30 9 14 9 21 -1 31 -6 6 -12 21 -12 33 0 12 -5 26 -12
33 -9 9 -8 16 5 29 10 12 13 23 7 33 -13 20 -3 30 31 30 19 0 29 -5 29 -15 0
-13 22 -15 135 -15 113 0 135 2 135 15 0 17 4 18 49 9 25 -5 30 -10 26 -25 -6
-16 -1 -19 33 -19 26 0 42 5 46 15 3 8 12 15 21 15 14 0 19 -11 16 -37 -3 -18
48 -16 55 2 10 25 34 17 34 -10 0 -18 5 -25 20 -25 11 0 20 7 20 15 0 8 7 15
15 15 9 0 15 -9 15 -25 0 -16 6 -25 15 -25 8 0 15 7 15 16 0 23 24 11 28 -14
2 -12 10 -22 18 -22 8 0 33 -9 55 -20 32 -17 39 -18 37 -6 -2 8 2 15 7 16 6 0
11 -8 13 -19 2 -11 16 -26 33 -33 16 -7 29 -17 29 -23 0 -5 5 -2 11 8 12 21
29 14 29 -12 0 -10 7 -24 15 -31 12 -10 15 -9 15 5 0 24 24 13 28 -13 5 -30
62 -78 73 -60 12 19 99 -69 99 -100 0 -26 33 -62 57 -62 7 0 13 -11 13 -26 0
-33 17 -64 34 -64 15 0 66 -83 66 -105 0 -8 -6 -15 -12 -18 -10 -4 -10 -7 0
-18 6 -7 12 -23 12 -35 0 -13 5 -26 10 -29 6 -3 10 -16 10 -28 0 -12 9 -28 20
-35 21 -13 28 -42 10 -42 -14 0 -12 -76 2 -100 10 -16 10 -24 0 -40 -14 -24
-16 -100 -2 -100 19 0 10 -32 -10 -37 -22 -6 -26 -23 -9 -40 16 -16 3 -47 -16
-39 -12 4 -13 2 -2 -15 10 -18 9 -23 -10 -36 -13 -9 -23 -26 -23 -39 0 -13 -4
-24 -10 -24 -5 0 -10 -12 -10 -26 0 -14 -4 -23 -9 -20 -9 6 -23 -19 -25 -44
-1 -8 -6 -14 -13 -13 -6 2 -14 -6 -18 -16 -6 -20 -148 -161 -162 -161 -5 0
-20 -11 -33 -25 -13 -14 -29 -25 -36 -25 -6 0 -17 -7 -25 -16 -7 -8 -35 -27
-61 -40 -53 -27 -66 -49 -64 -109 1 -27 6 -40 16 -40 24 -1 40 -15 33 -30 -4
-12 4 -15 35 -15 35 0 39 2 35 20 -7 27 25 39 42 17 17 -23 45 -22 45 2 0 25
18 37 26 18 8 -21 133 41 134 67 0 12 5 16 15 12 8 -3 21 1 29 9 8 8 19 15 25
15 6 0 11 9 11 20 0 13 7 20 18 20 25 0 66 36 57 49 -3 6 1 11 10 11 8 0 20
11 25 24 5 13 13 25 17 27 13 5 73 95 73 108 0 6 4 11 10 11 5 0 12 17 16 38
4 20 9 31 11 25 6 -18 24 -16 38 3 9 14 16 14 33 5 12 -6 22 -18 22 -26 0 -21
40 -19 56 3 13 16 14 16 19 -3 4 -12 21 -27 38 -34 18 -8 47 -25 65 -38 25
-19 32 -21 32 -9 0 9 5 16 10 16 6 0 10 -9 10 -20 0 -11 16 -35 36 -52 20 -17
54 -59 77 -92 22 -34 43 -63 47 -66 4 -3 10 -14 15 -25 4 -11 9 -22 10 -25 2
-3 6 -15 10 -28 4 -13 19 -28 32 -33 21 -8 23 -13 17 -44 -6 -31 -3 -36 21
-45 18 -7 25 -15 21 -25 -3 -8 -9 -22 -12 -30 -4 -11 -2 -13 9 -9 22 8 33 -17
14 -31 -21 -15 -22 -35 -3 -35 7 0 20 -7 27 -16 11 -14 11 -18 -4 -29 -24 -17
-21 -40 9 -70 24 -24 25 -27 10 -44 -17 -19 -23 -117 -7 -106 35 21 43 -195 8
-220 -21 -15 -23 -90 -2 -111 18 -18 9 -44 -16 -44 -24 0 -26 -38 -2 -55 15
-11 15 -15 4 -29 -7 -9 -20 -16 -27 -16 -19 0 -18 -20 3 -35 19 -14 8 -39 -13
-31 -17 7 -19 -25 -3 -41 14 -14 1 -36 -17 -29 -16 6 -19 -15 -4 -30 14 -14
-18 -77 -36 -70 -9 3 -15 -6 -20 -29 -3 -19 -10 -35 -16 -35 -5 0 -7 -4 -3 -9
3 -5 1 -12 -5 -16 -5 -3 -10 -17 -10 -31 0 -14 -4 -23 -9 -20 -11 7 -51 -59
-51 -85 0 -10 -4 -19 -9 -19 -5 0 -16 -3 -25 -6 -10 -4 -16 -1 -16 7 0 7 -9
22 -19 33 -19 20 -52 76 -106 184 -15 28 -31 52 -36 52 -5 0 -9 7 -9 15 0 8
-5 15 -11 15 -5 0 -16 15 -24 33 -8 19 -21 39 -29 46 -9 7 -14 17 -11 21 2 4
-11 22 -30 40 -19 19 -35 38 -35 42 0 5 -11 21 -25 36 -14 15 -25 30 -25 35 0
4 -22 30 -50 58 -27 28 -50 55 -50 60 0 13 -353 369 -366 369 -5 0 -33 25 -63
55 -30 29 -66 59 -80 67 -14 7 -30 19 -34 26 -8 12 -17 19 -133 97 -32 22 -75
52 -94 66 -19 15 -58 39 -87 54 -28 14 -57 33 -64 41 -6 8 -15 14 -20 14 -5 0
-38 17 -73 39 -35 21 -78 43 -96 50 -19 6 -41 17 -49 24 -9 8 -32 20 -51 27
-19 8 -62 26 -94 42 -33 15 -67 28 -77 28 -10 0 -21 5 -24 10 -3 6 -15 10 -26
10 -10 0 -19 4 -19 8 0 4 -21 14 -47 21 -27 8 -52 17 -58 21 -5 4 -21 10 -35
13 -14 3 -70 17 -125 32 -55 15 -116 29 -135 32 -19 3 -39 9 -45 13 -5 5 -28
9 -50 11 -22 1 -45 6 -50 10 -6 4 -37 9 -70 10 -33 1 -66 6 -73 12 -7 6 -35 7
-70 3 -31 -4 -82 -10 -112 -12 -50 -5 -120 -21 -120 -29 0 -1 7 -16 15 -31 8
-16 15 -23 15 -16 0 6 7 12 15 12 8 0 15 -8 15 -18 0 -11 14 -24 35 -34 29
-13 35 -13 35 -2 0 8 5 14 10 14 6 0 10 -8 10 -18 0 -11 14 -21 42 -30 36 -12
43 -11 50 3 11 19 28 10 28 -16 0 -22 25 -26 34 -4 7 20 36 8 36 -16 0 -12 7
-19 20 -19 11 0 20 7 20 15 0 8 7 15 15 15 9 0 15 -9 15 -25 0 -29 26 -34 45
-8 14 19 35 9 35 -18 0 -12 7 -19 20 -19 11 0 20 7 20 15 0 8 7 15 15 15 9 0
15 -9 15 -24 0 -19 6 -25 33 -29 53 -9 135 -31 143 -40 4 -4 17 -7 29 -7 11 0
27 -6 34 -12 11 -10 14 -10 18 0 7 20 33 14 33 -8 0 -11 7 -20 15 -20 8 0 15
5 15 10 0 6 5 10 10 10 6 0 10 -9 10 -20 0 -11 5 -20 10 -20 6 0 30 -9 53 -20
25 -12 43 -16 45 -10 6 18 32 10 32 -10 0 -12 7 -20 18 -20 9 0 31 -9 49 -19
27 -17 32 -18 37 -5 7 19 26 8 26 -15 0 -11 18 -25 53 -41 28 -12 68 -30 87
-39 19 -8 43 -14 53 -13 11 2 17 -3 17 -16 0 -22 42 -47 76 -44 16 1 24 -3 24
-14 0 -22 27 -48 34 -31 3 8 12 2 27 -16 16 -21 24 -25 30 -16 6 10 11 6 18
-13 11 -31 27 -43 36 -28 9 15 25 2 25 -21 0 -10 4 -19 9 -19 5 0 17 -7 25
-16 9 -8 16 -11 16 -5 0 17 20 13 27 -5 11 -29 60 -77 68 -65 8 14 25 5 25
-14 0 -21 103 -116 114 -104 11 10 66 -37 66 -55 0 -13 111 -126 124 -126 19
0 66 -54 66 -75 0 -12 16 -36 35 -55 19 -19 35 -40 35 -48 0 -9 7 -11 20 -7
16 5 20 2 20 -18 0 -13 9 -32 20 -42 11 -10 20 -24 20 -32 0 -7 5 -13 10 -13
6 0 10 5 10 11 0 23 18 -3 24 -35 5 -26 12 -36 29 -38 14 -2 21 -9 19 -20 -1
-9 7 -22 18 -28 11 -6 20 -20 20 -31 0 -12 8 -23 20 -26 13 -4 20 -14 20 -30
0 -16 7 -27 20 -30 15 -4 20 -14 20 -37 1 -35 20 -66 42 -66 11 0 17 -14 21
-47 3 -26 10 -49 16 -51 6 -2 11 -12 11 -23 0 -10 4 -19 8 -19 4 0 14 -17 21
-37 8 -21 17 -40 20 -43 11 -9 51 -92 51 -106 0 -8 8 -14 19 -14 10 0 22 -10
26 -22 8 -22 9 -34 13 -102 2 -24 4 -27 17 -16 12 10 16 9 22 -6 4 -10 2 -19
-4 -21 -15 -5 7 -63 24 -63 18 0 27 -20 14 -33 -16 -16 -14 -24 9 -30 23 -6
27 -27 5 -27 -23 0 -18 -16 10 -28 29 -14 32 -27 8 -41 -15 -8 -16 -12 -5 -22
6 -7 12 -23 12 -35 0 -14 8 -25 20 -29 20 -6 29 -45 10 -45 -5 0 -10 -7 -10
-15 0 -8 9 -15 19 -15 25 0 34 -26 16 -44 -21 -20 -19 -36 5 -36 13 0 20 -7
20 -20 0 -11 -4 -20 -10 -20 -18 0 -11 -35 10 -48 20 -12 28 -52 10 -52 -18 0
-11 -35 10 -48 21 -13 28 -42 10 -42 -18 0 -11 -59 10 -80 21 -21 27 -60 10
-60 -5 0 -10 -24 -10 -53 0 -41 4 -55 20 -65 24 -15 26 -38 5 -58 -23 -23 -22
-559 1 -592 19 -27 12 -52 -14 -52 -17 0 -19 -6 -15 -47 3 -27 9 -52 14 -57
16 -18 10 -48 -11 -53 -23 -6 -27 -42 -7 -74 10 -17 9 -23 -10 -39 -24 -19
-31 -54 -13 -65 19 -12 11 -45 -10 -45 -17 0 -20 -7 -20 -40 0 -22 -4 -40 -10
-40 -5 0 -10 -11 -10 -25 0 -14 5 -25 10 -25 6 0 10 -9 10 -20 0 -18 -10 -25
-32 -21 -5 0 -8 -8 -8 -19 0 -11 5 -20 10 -20 6 0 10 -9 10 -20 0 -13 -7 -20
-20 -20 -24 0 -26 -25 -3 -39 14 -8 15 -12 4 -25 -7 -9 -19 -16 -26 -16 -7 0
-15 -12 -17 -27 -3 -16 -9 -36 -13 -45 -5 -13 -3 -18 9 -18 23 0 20 -31 -4
-37 -23 -6 -26 -23 -7 -42 10 -10 8 -16 -10 -30 -15 -13 -19 -21 -11 -29 16
-16 1 -45 -18 -38 -14 5 -15 4 -5 -8 15 -18 5 -56 -15 -56 -17 0 -18 -12 -3
-27 16 -16 3 -47 -16 -39 -11 4 -15 -2 -15 -19 0 -14 -6 -35 -12 -46 -10 -17
-10 -23 0 -26 27 -10 11 -48 -19 -45 -4 1 -9 -16 -13 -36 -11 -66 -21 -71 -60
-33 -19 18 -39 30 -45 27 -6 -4 -11 0 -11 8 0 30 -55 19 -94 -18 -42 -39 -51
-94 -17 -103 11 -3 21 -17 25 -34 4 -20 10 -27 21 -23 9 4 15 1 15 -8 0 -27
25 -68 43 -68 10 0 17 -8 17 -18 0 -11 9 -27 20 -37 11 -10 20 -25 20 -33 0
-8 6 -12 15 -8 10 4 19 -5 29 -27 7 -18 23 -41 36 -52 12 -11 26 -30 31 -43 5
-13 14 -20 19 -17 14 8 60 -35 60 -56 0 -9 21 -35 46 -59 25 -23 61 -62 80
-87 19 -24 34 -39 34 -33 0 10 4 9 15 0 8 -7 15 -19 15 -26 0 -7 43 -57 95
-110 78 -78 94 -101 89 -118 -9 -29 -25 -44 -31 -28 -7 20 -33 14 -33 -8 0
-21 -15 -27 -25 -10 -12 19 -45 11 -45 -10 0 -21 -24 -28 -35 -10 -9 15 -152
13 -157 -2 -3 -7 -12 -9 -22 -5 -11 4 -16 13 -12 22 4 12 -4 15 -43 15 -30 0
-51 5 -54 13 -3 10 -9 10 -26 0 -30 -19 -43 -16 -36 7 5 16 2 20 -15 20 -23 0
-132 53 -162 78 -10 9 -18 12 -18 9 0 -3 -18 11 -41 31 -22 20 -46 37 -52 37
-15 0 -147 138 -147 153 0 20 -48 13 -70 -10 -21 -23 -28 -86 -11 -104 5 -5
11 -20 13 -34 1 -14 7 -24 11 -22 14 5 36 -30 37 -56 0 -15 7 -26 20 -29 11
-3 20 -10 20 -15 0 -15 121 -142 138 -147 8 -1 23 -10 33 -20 10 -9 35 -25 56
-36 21 -11 55 -30 75 -43 20 -13 42 -21 49 -17 6 4 15 2 19 -5 4 -7 19 -12 34
-12 14 0 26 -4 26 -9 0 -5 13 -9 29 -9 17 0 33 -4 36 -10 3 -6 30 -10 60 -10
30 0 57 -5 61 -11 4 -7 27 -10 60 -7 53 5 54 4 54 -23 0 -18 -6 -28 -20 -32
-12 -3 -20 -14 -20 -27 0 -13 -8 -24 -20 -27 -14 -4 -20 -14 -20 -33 0 -22 -5
-29 -22 -32 -17 -2 -24 -11 -26 -31 -2 -16 -11 -31 -20 -35 -31 -11 -62 -51
-62 -77 0 -22 -3 -25 -20 -20 -11 3 -20 2 -20 -2 0 -5 -56 -65 -123 -134 -68
-68 -126 -131 -130 -139 -5 -13 -7 -13 -16 0 -9 13 -11 12 -16 -1 -5 -13 -17
-15 -57 -11 -40 4 -53 1 -60 -12 -13 -24 -28 -19 -28 9 0 18 -5 25 -19 25 -11
0 -21 -4 -23 -9 -7 -19 -33 -16 -33 4 0 11 -8 21 -18 23 -10 2 -17 -3 -17 -12
0 -21 -1 -21 -60 14 -28 17 -57 30 -65 30 -8 0 -15 7 -15 15 0 17 -48 64 -66
65 -6 0 -22 12 -35 28 -13 15 -42 43 -64 62 -22 18 -39 40 -37 47 3 15 -25 47
-49 56 -10 3 -16 17 -16 32 0 15 -5 30 -10 34 -4 3 -14 17 -20 31 -7 14 -12
18 -12 10 -1 -16 -50 77 -51 96 -1 27 -27 64 -45 64 -39 0 -45 -19 -45 -136 0
-105 1 -112 21 -117 17 -4 19 -9 10 -24 -7 -15 -5 -22 10 -31 11 -7 19 -23 19
-38 0 -30 29 -96 39 -89 4 2 13 -12 20 -31 7 -19 16 -32 21 -29 5 3 22 -14 38
-37 34 -49 76 -88 95 -88 6 0 25 -16 41 -35 16 -19 32 -32 36 -30 4 3 15 -4
25 -15 10 -11 24 -20 32 -20 7 0 13 -3 13 -8 0 -4 23 -15 51 -25 73 -26 60
-41 -53 -64 -18 -3 -28 -12 -28 -24 0 -24 -19 -34 -26 -15 -4 10 -19 16 -41
16 -27 0 -34 -3 -29 -15 3 -9 -3 -19 -16 -26 -17 -9 -24 -8 -33 5 -18 24 -212
24 -230 -1 -14 -19 -35 -9 -35 18 0 24 -36 26 -62 2 -17 -15 -18 -15 -18 10 0
30 -26 38 -36 12 -9 -24 -24 -17 -24 10 0 20 -5 25 -24 25 -14 0 -27 4 -30 9
-3 5 -18 12 -33 16 -15 3 -32 12 -36 18 -6 9 -10 9 -14 0 -8 -21 -25 -14 -18
7 5 17 2 20 -24 20 -21 0 -31 5 -31 15 0 22 -53 66 -62 52 -9 -15 -48 20 -48
43 0 9 -17 25 -37 36 -28 15 -39 27 -41 48 -2 15 -10 30 -18 33 -8 3 -14 11
-14 19 0 8 -6 11 -15 8 -11 -4 -15 0 -15 16 0 12 -9 33 -20 47 -11 14 -20 34
-20 45 0 15 -5 18 -20 13 -16 -5 -20 -2 -20 19 0 14 -9 41 -20 61 -11 20 -20
46 -20 58 0 17 -2 19 -10 7 -7 -11 -11 -8 -21 15 -7 17 -13 47 -15 69 -1 21
-7 43 -13 49 -6 6 -11 19 -11 29 0 10 -6 18 -14 18 -25 0 -36 23 -20 44 19 27
18 36 -7 36 -19 0 -20 4 -15 35 4 20 4 41 -1 48 -4 6 -6 26 -4 44 2 26 -1 32
-12 27 -19 -7 -33 14 -18 29 19 19 13 81 -9 95 -21 13 -28 42 -10 42 6 0 10
28 10 64 0 36 -4 68 -10 71 -6 3 -10 50 -10 106 0 59 4 99 10 99 6 0 10 30 10
70 0 40 -4 70 -10 70 -19 0 -10 32 10 37 15 4 20 14 20 39 0 19 -5 34 -11 34
-5 0 -7 5 -4 10 4 6 10 8 15 5 5 -3 12 5 16 17 4 13 2 24 -5 26 -16 5 -14 32
3 32 10 0 14 9 13 28 -1 17 3 26 11 24 15 -3 16 24 2 33 -7 4 -1 16 15 30 14
13 25 33 25 44 0 11 4 22 9 25 5 3 12 18 16 33 3 15 10 30 13 33 14 10 52 92
52 111 0 10 5 18 11 17 6 -2 16 6 22 16 7 11 15 25 20 30 19 27 57 87 57 91 0
3 19 24 43 48 23 25 60 67 82 95 22 29 45 51 51 49 5 -1 25 15 43 36 18 20 39
37 47 37 8 0 14 3 14 8 0 4 8 12 18 17 68 37 92 58 92 82 0 19 -4 23 -19 18
-11 -3 -22 -1 -26 5 -10 17 -55 12 -55 -6 0 -12 -6 -15 -24 -10 -14 3 -28 2
-31 -4 -3 -5 -14 -10 -25 -10 -10 0 -21 -8 -24 -17 -5 -13 -9 -14 -15 -5 -11
17 -100 -27 -101 -50 0 -20 -20 -25 -20 -5 0 8 -3 7 -10 -3 -5 -8 -14 -15 -19
-15 -5 0 -24 -13 -43 -30 -18 -16 -37 -30 -43 -30 -19 0 -195 -188 -195 -208
0 -13 -5 -17 -15 -13 -9 3 -15 0 -15 -9 0 -8 -4 -15 -10 -15 -5 0 -10 -9 -10
-19 0 -11 -9 -26 -19 -33 -25 -18 -112 -184 -105 -202 6 -17 -22 -76 -36 -76
-6 0 -8 -11 -4 -25 4 -18 1 -27 -10 -31 -9 -3 -16 -15 -16 -25 0 -11 -6 -28
-12 -39 -9 -15 -10 -22 -1 -31 14 -14 6 -39 -13 -39 -17 0 -19 -37 -3 -42 16
-5 1 -48 -17 -48 -17 0 -19 -51 -3 -67 12 -12 -4 -53 -21 -53 -11 0 -14 -123
-4 -133 9 -9 10 -247 1 -247 -4 0 -7 -35 -5 -77 2 -59 6 -78 17 -78 18 0 26
-21 12 -30 -17 -10 -14 -85 3 -85 19 0 31 -39 17 -53 -15 -15 -14 -37 3 -37
17 0 29 -27 16 -35 -16 -10 -11 -45 6 -45 12 0 14 -7 9 -29 -3 -17 -2 -32 4
-36 6 -3 11 -19 11 -36 0 -18 5 -29 14 -29 9 0 15 -16 19 -47 3 -26 12 -52 21
-58 9 -7 16 -20 16 -29 0 -9 9 -33 20 -53 11 -21 20 -48 20 -60 0 -12 8 -24
18 -27 9 -3 23 -24 30 -47 7 -22 21 -49 31 -60 10 -11 29 -40 41 -64 13 -25
27 -45 32 -45 4 0 7 -3 6 -7 -2 -14 14 -43 22 -38 8 5 58 -56 79 -97 8 -15 17
-25 21 -23 4 3 31 -20 59 -50 28 -29 51 -51 51 -48 0 3 16 -10 35 -30 34 -35
46 -67 25 -67 -5 0 -10 -9 -10 -20 0 -11 -4 -20 -10 -20 -5 0 -10 4 -10 9 0 5
-9 7 -20 4 -11 -3 -20 -9 -20 -14 0 -5 -6 -9 -14 -9 -8 0 -16 -10 -18 -22 -4
-25 -28 -37 -28 -13 0 14 -2 14 -13 3 -7 -7 -16 -21 -20 -30 -3 -10 -13 -18
-22 -18 -8 0 -15 -5 -15 -11 0 -6 -7 -8 -16 -5 -19 7 -72 -22 -79 -44 -6 -18
-59 -44 -63 -31 -2 5 -25 -3 -52 -19 -26 -16 -51 -26 -54 -23 -3 4 -6 1 -6 -5
0 -7 -6 -12 -13 -12 -17 0 -181 -81 -185 -92 -2 -4 -12 -8 -22 -8 -12 0 -20
-9 -22 -22 -2 -13 -9 -22 -17 -20 -7 1 -20 -3 -28 -10 -11 -9 -16 -9 -23 1 -6
11 -14 11 -40 -3 -18 -9 -41 -16 -52 -16 -13 0 -18 -7 -18 -25 0 -25 -14 -33
-25 -15 -6 10 -65 2 -80 -11 -5 -5 -17 -9 -27 -9 -11 0 -18 -7 -18 -19 0 -26
-18 -37 -26 -17 -10 26 -34 19 -34 -9 0 -16 -6 -25 -15 -25 -8 0 -15 7 -15 15
0 23 -18 18 -22 -7 -4 -25 -28 -37 -28 -14 0 24 -28 19 -32 -6 -4 -25 -28 -37
-28 -14 0 9 -7 16 -15 16 -8 0 -15 -9 -15 -19 0 -26 -18 -37 -26 -17 -9 23
-44 20 -44 -3 0 -26 -18 -37 -26 -17 -7 18 -49 22 -59 6 -3 -5 -19 -10 -36
-10 -22 0 -29 -5 -29 -19 0 -24 -29 -36 -36 -16 -9 23 -44 19 -44 -5 0 -11 -7
-20 -15 -20 -8 0 -15 7 -15 15 0 10 -10 15 -29 15 -23 0 -30 -5 -33 -22 -3
-26 -38 -38 -38 -14 0 12 -10 16 -40 16 -36 0 -40 -2 -40 -25 0 -28 -27 -35
-36 -10 -4 10 -20 15 -51 15 -40 0 -45 -2 -40 -19 3 -12 -1 -22 -10 -25 -24
-10 -33 -7 -33 9 0 12 -15 15 -71 15 -60 0 -70 -2 -60 -14 14 -17 8 -21 -41
-30 -31 -6 -38 -4 -38 9 0 13 -34 15 -281 15 -254 0 -283 -2 -294 -17 -11 -14
-15 -15 -28 -4 -9 7 -13 19 -10 27 8 22 -155 20 -172 -3 -17 -22 -45 -10 -38
16 5 19 1 21 -46 21 -40 0 -51 -3 -51 -16 0 -24 -35 -12 -38 14 -3 18 -10 22
-43 22 -29 0 -39 -4 -39 -16 0 -9 -7 -14 -17 -12 -12 2 -17 11 -15 26 3 20 -1
22 -37 22 -30 0 -41 -4 -41 -15 0 -8 -7 -15 -15 -15 -8 0 -15 9 -15 20 0 16
-7 20 -34 20 -19 0 -38 5 -41 10 -10 16 -62 12 -69 -6 -8 -20 -26 -9 -26 17 0
14 -7 19 -25 19 -16 0 -25 -6 -25 -16 0 -23 -24 -11 -28 14 -2 14 -11 22 -22
22 -10 0 -22 5 -25 10 -10 15 -52 12 -59 -5 -9 -24 -26 -17 -26 10 0 27 -24
35 -34 10 -9 -24 -26 -17 -26 10 0 16 -6 25 -15 25 -8 0 -15 -7 -15 -16 0 -23
-24 -11 -28 14 -4 25 -32 30 -32 6 0 -9 -6 -14 -12 -11 -7 2 -13 14 -12 26 0
14 -5 21 -18 21 -10 0 -18 -7 -18 -15 0 -8 -4 -15 -10 -15 -5 0 -10 11 -10 24
0 14 -7 26 -17 29 -10 2 -26 8 -35 12 -13 5 -18 2 -18 -9 0 -9 -7 -16 -15 -16
-9 0 -15 9 -15 25 0 18 -5 25 -19 25 -11 0 -23 5 -26 10 -9 15 -25 12 -25 -5
0 -8 -4 -15 -10 -15 -5 0 -10 9 -10 20 0 22 -16 27 -22 8 -2 -6 -10 -8 -17 -4
-7 5 -10 14 -7 22 3 9 -2 14 -14 14 -11 0 -20 5 -20 10 0 16 -22 12 -36 -7
-11 -16 -13 -16 -19 10 -7 26 -8 26 -21 10 -12 -17 -13 -16 -14 9 0 15 -4 30
-10 33 -5 3 -10 -1 -10 -9 0 -18 -15 -21 -25 -6 -3 5 -12 7 -20 3 -11 -4 -15
2 -15 23 -1 25 -2 26 -11 11 -15 -25 -29 -21 -30 11 -1 17 -3 21 -6 9 -6 -23
-27 -17 -31 9 -2 11 -19 28 -40 39 -20 10 -45 26 -55 34 -14 12 -18 12 -15 2
2 -7 -3 -16 -9 -18 -8 -3 -13 5 -13 21 0 30 -8 33 -26 9 -12 -17 -13 -17 -14
3 0 29 -25 50 -34 29 -8 -22 -29 -8 -23 15 3 12 -4 22 -22 31 -14 8 -35 22
-45 32 -11 9 -24 17 -29 17 -5 0 -18 9 -27 20 -15 17 -19 18 -24 5 -8 -21 -26
-19 -26 4 0 23 -25 47 -35 31 -10 -16 -25 -12 -25 9 0 10 -10 31 -22 46 -21
28 -22 28 -30 6 -9 -26 -28 -19 -28 11 0 22 -26 58 -42 58 -4 0 -8 -7 -8 -15
0 -8 -4 -15 -10 -15 -5 0 -10 10 -10 23 0 14 -18 40 -45 67 -32 31 -45 39 -45
27 0 -9 -7 -17 -15 -17 -9 0 -15 9 -15 21 0 13 -27 49 -67 91 -56 57 -70 66
-79 54 -9 -13 -21 -5 -72 47 -40 40 -62 71 -62 86 0 14 -20 44 -53 78 -28 30
-55 62 -59 71 -4 9 -7 11 -7 5 -2 -36 -61 7 -61 45 0 13 -12 39 -27 58 -16 18
-38 47 -51 64 -15 19 -33 30 -48 30 -18 0 -24 5 -24 23 0 45 -11 66 -33 64
-17 -2 -22 6 -29 38 -5 21 -18 50 -30 62 -12 13 -18 23 -14 23 5 0 -3 15 -18
34 -14 19 -31 47 -37 63 -6 16 -13 22 -16 16 -9 -26 -33 -13 -33 17 0 20 -5
30 -15 30 -21 0 -47 55 -39 85 4 15 2 25 -5 25 -6 0 -11 -4 -11 -10 0 -5 -4
-10 -10 -10 -16 0 -38 65 -33 94 3 15 1 26 -6 26 -6 0 -11 5 -11 12 0 16 -112
242 -122 246 -4 2 -8 12 -8 23 0 11 -7 19 -17 19 -28 0 -54 55 -42 87 12 32 5
55 -14 47 -20 -7 -40 21 -29 43 4 10 5 32 1 48 -3 17 -7 24 -8 18 0 -7 -7 -13
-15 -13 -17 0 -29 27 -16 35 6 4 10 19 10 36 0 24 -4 29 -25 29 -18 0 -25 5
-25 20 0 11 7 20 15 20 8 0 15 5 15 11 0 5 -4 8 -9 5 -14 -9 -41 4 -41 20 0 7
7 17 17 22 10 6 14 16 9 27 -6 17 -7 17 -21 -1 -13 -19 -14 -19 -21 0 -5 13
-2 23 10 32 16 11 16 13 -6 16 -26 3 -39 38 -14 38 9 0 16 8 16 20 0 11 -4 20
-10 20 -5 0 -10 16 -10 35 0 33 -2 35 -20 25 -16 -9 -22 -8 -27 6 -4 10 0 22
10 29 24 18 21 42 -5 41 -14 -1 -24 6 -26 17 -2 10 3 17 12 17 10 0 16 9 16
21 0 14 -5 19 -14 16 -17 -7 -40 18 -31 33 3 5 13 10 21 10 9 0 14 7 12 18 -2
11 -11 16 -25 14 -12 -2 -23 4 -27 13 -8 21 1 35 20 35 8 0 14 9 14 20 0 13
-7 20 -20 20 -10 0 -24 9 -30 20 -8 16 -7 22 10 32 26 17 26 48 0 48 -10 0
-24 9 -30 20 -8 15 -6 21 10 30 14 7 20 21 20 45 0 27 -4 34 -22 37 -28 4 -38
45 -14 54 11 4 16 20 16 53 0 43 -2 48 -22 47 -18 -1 -24 5 -26 27 -2 19 1 27
12 27 13 0 16 13 16 69 0 59 -2 69 -17 67 -15 -1 -19 11 -25 69 -6 56 -4 72 7
81 22 17 22 254 0 254 -12 0 -14 10 -9 58 8 75 11 85 29 78 13 -4 15 8 15 74
0 64 -3 80 -15 80 -16 0 -20 27 -7 48 5 7 16 10 25 6 15 -5 17 1 17 45 0 40
-3 51 -16 51 -11 0 -14 8 -12 28 2 21 8 27 26 26 19 0 22 5 22 35 0 25 -6 40
-20 49 -17 10 -18 16 -10 32 6 11 20 20 30 20 13 0 20 7 20 20 0 11 -6 20 -14
20 -8 0 -18 4 -21 10 -10 16 14 50 35 50 17 0 20 7 20 44 0 25 5 48 10 51 17
11 11 32 -11 38 -28 7 -21 41 9 45 26 4 29 20 6 36 -21 16 -8 49 17 41 14 -5
19 -1 19 14 0 12 -6 21 -16 21 -9 0 -14 7 -12 18 3 11 12 16 26 15 19 -2 22 2
22 32 0 19 5 35 10 35 16 0 12 27 -5 34 -8 3 -15 12 -15 20 0 16 26 29 43 20
7 -3 4 1 -5 9 -22 17 -23 47 -3 47 8 0 15 -5 15 -11 0 -5 5 -7 10 -4 15 10 12
35 -5 35 -8 0 -15 9 -15 20 0 15 7 20 28 20 23 1 24 2 10 11 -19 11 -25 49 -8
49 6 0 10 -4 10 -10 0 -5 7 -10 15 -10 8 0 15 9 15 20 0 11 -6 19 -12 18 -17
-4 -17 34 0 40 6 2 12 -5 13 -15 0 -10 5 -3 10 15 6 21 6 39 -1 52 -13 24 -5
40 20 40 24 0 32 24 18 55 -9 20 -9 28 1 38 9 9 14 9 21 -3 10 -17 12 -16 27
28 6 17 8 30 3 27 -22 -14 -14 29 18 93 24 50 41 72 54 72 11 0 18 7 18 20 0
11 4 20 8 20 10 0 43 90 36 101 -2 5 7 33 22 63 21 43 32 55 48 53 11 -1 21 3
22 8 0 6 3 17 7 25 3 8 5 26 4 40 -2 19 3 26 20 28 18 3 49 46 53 74 0 4 11
19 23 32 13 14 32 42 43 63 10 21 21 40 24 43 3 3 17 21 30 40 13 19 28 38 32
41 5 3 12 25 16 50 6 35 12 44 27 42 24 -2 35 13 35 50 0 17 5 27 15 27 8 0
15 -5 15 -11 0 -5 5 -7 10 -4 6 4 8 10 5 14 -2 5 4 16 15 26 11 10 20 31 20
47 0 23 4 29 17 26 22 -4 70 49 75 82 1 14 10 26 20 28 26 5 158 142 158 165
0 24 37 67 57 67 15 0 343 329 343 345 1 13 78 95 90 95 4 0 10 -5 12 -11 2
-5 70 56 151 138 127 127 147 151 147 179 0 28 3 31 25 26 14 -2 25 0 25 6 0
20 -21 24 -45 8 -13 -9 -33 -16 -45 -16 -11 0 -20 -4 -20 -10 0 -5 -7 -10 -15
-10 -8 0 -15 -4 -15 -10 0 -19 -17 -10 -28 15 -18 40 -15 58 8 52 16 -4 20 0
20 19 0 13 -5 24 -11 24 -6 0 -9 10 -7 23 2 14 9 21 21 21 21 -2 24 38 3 56
-19 15 -9 40 15 40 14 0 19 7 19 25 0 14 -4 25 -10 25 -5 0 -10 11 -10 25 0
18 5 25 20 25 25 0 28 37 4 54 -20 15 -8 46 17 46 24 0 25 28 2 45 -20 15 -11
45 17 52 24 6 26 26 5 43 -27 22 -16 47 18 41 4 0 7 8 7 19 0 11 -4 20 -10 20
-14 0 -13 27 1 36 6 3 15 0 20 -7 6 -10 9 -4 9 19 0 17 5 32 10 32 6 0 10 10
10 23 0 12 7 33 16 45 14 20 14 22 0 22 -9 0 -16 9 -16 20 0 13 7 20 18 20 26
0 51 48 33 60 -20 12 26 108 54 112 11 2 28 20 40 43 11 22 22 42 25 45 20 19
40 64 40 90 0 23 4 30 20 30 10 0 35 14 55 31 27 24 35 39 35 64 0 37 14 53
27 31 12 -22 113 67 113 100 0 13 5 24 10 24 10 0 14 -14 11 -35 -1 -5 7 0 17
13 19 25 36 35 124 79 45 22 58 33 58 51 0 13 6 22 15 22 8 0 15 -7 15 -15 0
-8 4 -15 10 -15 5 0 9 10 7 21 -1 12 4 24 11 26 6 3 12 -2 12 -11 0 -9 7 -16
15 -16 9 0 15 9 15 25 0 16 6 25 15 25 8 0 15 -7 15 -15 0 -8 7 -15 15 -15 9
0 15 9 15 25 0 27 17 34 26 10 4 -9 19 -15 39 -15 27 0 34 4 37 22 3 26 38 38
38 14 0 -13 14 -16 85 -16 71 0 85 3 85 16 0 24 35 12 38 -14 3 -19 9 -22 47
-22 24 0 47 -4 50 -10 3 -5 17 -10 30 -10 13 0 27 -5 31 -12 5 -7 10 -4 16 11
9 27 28 19 28 -12 0 -17 9 -25 37 -34 23 -7 42 -8 49 -2 13 11 24 1 24 -22 0
-23 34 -42 60 -34 16 5 20 2 20 -15 0 -21 43 -65 84 -85 12 -6 21 -20 22 -30
1 -11 6 -31 12 -45 9 -22 11 -22 12 -5 0 14 9 5 30 -30 17 -27 28 -58 26 -67
-2 -10 -1 -18 3 -18 4 0 13 -16 21 -35 8 -19 24 -42 37 -51 13 -8 23 -20 21
-27 -4 -20 31 -64 61 -77 24 -9 35 -9 60 4 26 14 31 23 31 51 0 22 5 35 13 35
10 0 13 24 12 100 -1 55 -5 103 -8 107 -4 3 -7 17 -7 29 0 13 -9 28 -21 34
-16 9 -19 18 -14 39 5 23 2 29 -14 34 -26 6 -27 24 -3 31 23 8 51 75 45 109
-5 23 -1 29 16 34 12 3 28 20 37 38 8 18 24 42 34 53 11 12 20 25 20 30 0 5
38 46 85 91 47 46 85 92 85 102 0 24 19 34 26 14 9 -22 34 0 34 31 0 24 15 33
22 13 7 -20 78 17 78 40 0 26 17 28 23 4 3 -12 5 -8 6 9 1 34 21 47 28 18 4
-15 10 -19 22 -14 9 3 24 9 34 11 10 3 17 15 17 29 0 13 5 24 10 24 6 0 10 -7
10 -15 0 -8 7 -15 15 -15 8 0 15 9 15 19 0 27 21 37 35 18 18 -25 45 -22 42 5
-1 14 4 23 16 26 10 2 17 -3 17 -12 0 -11 9 -16 30 -16 25 0 30 4 30 25 0 27
24 35 34 10 3 -10 19 -15 46 -15 36 0 41 2 35 19 -5 16 0 20 27 24 66 8 68 8
68 -13z m4678 -5273 c2 -9 -4 -25 -14 -34 -16 -16 -15 -18 10 -26 28 -9 35
-34 11 -43 -22 -9 -18 -34 5 -34 27 0 38 -29 17 -45 -10 -7 -17 -26 -17 -44 0
-28 3 -31 20 -26 27 9 40 -23 17 -40 -26 -19 -22 -78 5 -90 27 -12 37 -45 14
-45 -13 0 -16 -12 -16 -60 0 -40 -4 -60 -12 -60 -6 0 -3 -6 7 -14 17 -12 18
-17 7 -40 -7 -15 -12 -36 -12 -47 0 -15 -6 -19 -22 -17 -21 3 -23 -1 -23 -42
0 -53 -30 -120 -54 -120 -18 0 -41 -43 -41 -77 0 -16 -6 -23 -20 -23 -17 0
-20 -6 -18 -27 2 -20 -2 -28 -12 -28 -19 0 -60 -57 -60 -84 0 -22 -78 -94 -96
-87 -13 5 -94 -74 -94 -92 0 -14 -17 -16 -22 -2 -4 12 -58 -33 -58 -49 0 -7
-8 -11 -17 -9 -11 2 -22 -8 -31 -25 -10 -21 -18 -26 -33 -22 -14 5 -21 0 -29
-21 -8 -19 -14 -24 -21 -17 -14 14 -79 -23 -79 -44 0 -10 -6 -14 -20 -10 -11
3 -20 1 -20 -4 0 -5 -6 -9 -12 -9 -14 0 -88 -77 -88 -91 0 -15 38 -29 79 -29
23 0 41 4 41 8 0 5 21 10 47 11 26 1 50 7 55 14 4 6 21 10 38 9 17 -2 30 1 30
7 0 6 7 11 15 11 8 0 24 5 35 10 11 6 28 14 38 18 24 12 101 55 140 79 19 12
40 30 48 42 8 11 22 21 30 21 8 0 14 5 14 10 0 6 6 10 12 10 17 0 169 158 188
195 20 40 60 47 60 11 0 -15 -8 -30 -21 -36 -16 -9 -18 -14 -9 -26 17 -19 5
-44 -20 -44 -24 0 -26 -18 -3 -35 20 -15 11 -45 -14 -45 -14 0 -22 -15 -34
-65 -10 -42 -12 -66 -6 -68 6 -2 8 -11 4 -21 -4 -10 -13 -16 -21 -13 -16 6
-28 -47 -14 -61 15 -15 -24 -73 -44 -66 -14 4 -18 0 -18 -20 0 -14 -4 -28 -10
-31 -5 -3 -12 -28 -16 -56 -6 -42 -10 -50 -24 -46 -21 5 -40 -29 -40 -74 0
-24 -3 -29 -17 -25 -18 6 -30 -11 -80 -107 -8 -15 -23 -32 -34 -37 -10 -6 -19
-16 -19 -23 0 -8 -13 -26 -30 -42 -17 -16 -30 -39 -30 -52 0 -15 -8 -27 -22
-33 -28 -10 -176 -159 -192 -192 -6 -13 -20 -23 -31 -23 -22 0 -68 -40 -78
-67 -7 -20 -27 -24 -27 -6 0 6 -11 1 -25 -12 -14 -13 -25 -32 -25 -42 0 -20
-15 -24 -25 -8 -4 7 -14 3 -25 -10 -9 -11 -21 -20 -25 -20 -17 0 -67 -44 -76
-67 -5 -13 -15 -23 -21 -22 -7 1 -20 -1 -29 -5 -11 -5 -56 34 -166 144 -108
107 -155 149 -167 144 -10 -4 -18 0 -23 12 -4 10 -2 19 5 22 7 2 12 10 12 17
0 8 9 20 20 28 22 15 80 101 80 117 0 6 4 10 8 10 4 0 13 15 20 33 7 18 20 42
30 53 22 24 63 111 77 164 1 3 7 18 13 33 7 16 12 34 12 42 0 7 7 16 16 19 10
4 14 14 11 26 -3 12 1 24 10 29 10 5 14 16 11 29 -4 12 0 26 8 33 8 6 14 20
14 30 0 10 5 21 11 24 6 4 9 23 7 42 -1 20 3 37 10 42 8 5 11 17 7 33 -5 19
-2 27 11 32 13 5 15 14 10 46 -5 33 -3 40 10 40 14 0 15 7 10 39 -4 29 -2 42
10 52 12 10 15 24 10 61 -6 39 -4 50 9 55 13 5 16 18 13 65 -2 42 1 61 11 67
10 7 13 28 9 90 -3 45 -1 84 3 87 4 2 8 127 9 276 1 280 3 297 40 281 29 -12
163 -16 156 -4 -12 19 3 32 23 19 15 -9 35 -3 107 33 49 24 91 47 92 52 2 4 8
7 13 7 19 0 79 45 80 60 0 12 2 12 6 1 4 -9 24 6 62 45 50 53 90 84 107 84 3
0 4 -10 2 -22 -2 -15 -9 -22 -21 -22 -18 2 -24 -30 -7 -41 17 -11 11 -35 -9
-35 -22 0 -32 -20 -24 -49 3 -12 0 -35 -7 -51 -11 -27 -21 -35 -42 -31 -5 0
-8 -8 -8 -19 0 -11 -4 -20 -9 -20 -6 0 -9 -12 -8 -27 1 -19 -3 -28 -13 -28
-20 0 -39 -25 -40 -51 0 -25 -24 -49 -40 -39 -5 3 -13 -2 -17 -12 -4 -10 -15
-25 -25 -34 -10 -9 -18 -20 -18 -25 0 -15 -42 -53 -55 -48 -7 3 -24 -9 -38
-26 -15 -17 -33 -30 -40 -28 -22 5 -117 -81 -117 -107 0 -56 110 -106 123 -55
5 21 27 28 27 9 0 -6 16 -2 36 10 19 12 42 21 50 21 8 0 14 5 14 10 0 6 6 10
13 10 8 0 22 9 32 20 10 11 23 20 30 20 14 0 175 157 175 171 0 5 5 9 10 9 6
0 10 4 10 10 0 5 18 33 40 62 22 29 40 59 40 66 0 6 5 12 10 12 6 0 10 9 10
19 0 11 4 22 9 25 5 3 12 17 15 32 4 14 18 43 32 65 17 27 22 47 18 64 -5 19
-2 25 11 25 14 0 17 6 12 34 -4 23 -1 36 7 39 8 3 11 17 8 37 -4 27 -2 31 14
28 10 -2 20 -11 22 -21z m-7304 -5133 c11 -7 43 -21 73 -30 49 -16 69 -37 41
-46 -6 -2 -11 -18 -10 -36 0 -17 -4 -34 -9 -37 -5 -4 -9 -35 -9 -71 l0 -64
-41 0 c-24 0 -47 -6 -53 -14 -15 -19 -126 -10 -126 10 0 8 7 14 15 14 17 0 21
45 5 55 -17 10 -11 44 10 57 15 10 20 24 20 55 0 24 -5 43 -11 43 -8 0 -8 57
0 88 2 7 78 -12 95 -24z m3186 -154 c0 -30 4 -40 16 -40 13 0 15 -7 9 -39 -5
-30 -3 -40 9 -44 20 -8 21 -27 1 -27 -8 0 -15 5 -15 10 0 6 -16 10 -36 10 -27
0 -35 -4 -31 -14 6 -16 -11 -36 -30 -36 -7 0 -13 7 -13 15 0 10 -11 15 -35 15
-29 0 -35 -4 -35 -21 0 -14 -5 -19 -16 -17 -14 2 -17 17 -18 76 -1 48 3 72 10
72 7 0 14 7 18 15 3 9 18 15 36 15 16 0 30 5 30 10 0 6 10 10 23 10 13 0 32 7
43 15 29 22 34 18 34 -25z m-3045 -381 c5 -5 30 -9 56 -9 26 0 51 -4 54 -10 3
-5 21 -10 40 -10 19 0 44 -4 57 -9 49 -20 63 -24 75 -22 6 1 14 -3 18 -9 3 -5
14 -10 24 -10 10 0 40 -11 67 -25 27 -14 52 -25 57 -25 10 0 161 -72 167 -80
6 -7 170 -120 174 -120 8 0 126 -123 126 -131 0 -6 13 -24 29 -41 17 -18 35
-43 42 -57 7 -15 20 -34 27 -43 8 -10 11 -25 8 -34 -4 -10 -3 -20 3 -23 5 -3
10 -28 11 -56 3 -63 2 -80 -6 -72 -3 3 -17 -7 -31 -24 -21 -24 -32 -29 -69
-29 -32 0 -44 -4 -44 -15 0 -8 -4 -15 -10 -15 -5 0 -10 8 -10 17 0 23 -69 93
-92 93 -14 0 -18 8 -18 40 0 22 -4 40 -10 40 -5 0 -10 6 -10 14 0 8 -7 12 -17
10 -20 -5 -53 56 -62 116 -4 25 -14 38 -33 48 -19 9 -28 21 -28 37 0 29 -88
123 -139 148 -31 16 -35 16 -46 0 -14 -19 -35 -9 -35 18 0 17 -7 19 -75 19
-68 0 -75 -2 -75 -19 0 -26 -18 -37 -26 -17 -7 19 -26 21 -23 4 4 -30 -2 -40
-18 -34 -20 8 -73 -40 -73 -66 0 -9 -9 -22 -19 -28 -27 -14 -50 -63 -44 -94 4
-18 0 -28 -11 -32 -13 -5 -15 -14 -10 -40 5 -27 2 -35 -11 -40 -15 -6 -16 -15
-11 -61 5 -42 3 -55 -8 -59 -11 -4 -14 -16 -10 -44 3 -22 1 -41 -5 -45 -6 -3
-11 -14 -11 -24 0 -10 -9 -21 -20 -24 -13 -3 -20 -14 -20 -30 0 -29 -32 -61
-63 -62 -12 -1 -39 -2 -59 -3 -34 -2 -38 -5 -38 -28 0 -24 -2 -25 -47 -22 -41
3 -48 6 -51 26 -4 29 -42 31 -42 1 0 -28 -23 -19 -30 11 -3 13 -19 31 -35 40
-17 9 -30 22 -30 27 0 6 -3 15 -7 19 -5 4 -8 2 -8 -4 0 -7 -7 -12 -16 -12 -12
0 -15 7 -12 31 4 25 1 32 -19 40 -22 8 -33 39 -13 39 6 0 10 42 10 105 0 77
-3 105 -12 105 -17 0 -48 55 -48 84 0 24 -65 90 -117 119 -32 18 -33 18 -33
-2 0 -12 -7 -21 -15 -21 -9 0 -15 9 -15 25 0 24 -2 25 -74 25 -69 0 -75 -2
-78 -22 -4 -25 -28 -37 -28 -14 0 9 -7 16 -15 16 -9 0 -15 -9 -15 -25 0 -29
-29 -36 -31 -7 -1 11 -4 8 -8 -8 -4 -14 -14 -25 -22 -25 -9 0 -30 -13 -48 -28
-18 -15 -37 -27 -42 -27 -5 0 -9 -12 -9 -26 0 -20 -4 -24 -19 -19 -11 3 -22 1
-26 -5 -3 -5 -15 -10 -26 -10 -12 0 -19 -7 -19 -20 0 -11 -7 -20 -15 -20 -8 0
-15 7 -15 15 0 10 -10 15 -30 15 -21 0 -34 8 -47 28 -10 15 -24 32 -32 38 -13
10 -13 14 -2 28 7 9 19 16 26 16 11 0 23 48 26 102 0 9 9 18 20 21 10 3 22 13
26 23 4 10 29 40 55 66 41 40 55 48 93 50 25 2 47 9 50 16 3 7 9 10 15 7 5 -3
10 -2 10 4 0 5 21 17 48 27 26 9 51 21 56 26 6 4 18 8 27 8 10 0 34 9 53 21
19 11 40 18 46 14 5 -3 10 -2 10 3 0 11 98 42 133 42 15 0 27 5 27 10 0 6 15
10 34 10 19 0 37 4 40 8 3 5 26 9 53 11 26 1 52 6 58 10 5 5 44 9 85 10 41 1
77 5 80 8 8 9 314 -7 325 -18z m3515 -4 c30 -4 59 -11 64 -16 6 -5 27 -9 47
-9 21 0 41 -4 44 -10 3 -5 19 -10 35 -10 16 0 32 -5 35 -10 4 -6 15 -8 25 -5
10 3 21 1 25 -5 3 -5 15 -10 26 -10 10 0 29 -5 42 -12 50 -26 63 -31 116 -49
77 -27 111 -42 111 -51 0 -5 7 -8 15 -8 8 0 15 -4 15 -8 0 -4 19 -9 42 -11 43
-2 82 -27 93 -60 3 -9 21 -27 40 -41 19 -14 35 -31 35 -39 0 -7 12 -27 26 -44
18 -21 24 -37 20 -53 -4 -16 0 -30 14 -44 15 -15 20 -31 18 -53 -3 -34 -4 -34
-75 -36 -31 -1 -43 -5 -43 -16 0 -8 -7 -15 -15 -15 -8 0 -15 9 -15 20 0 11 -6
20 -13 20 -8 0 -22 9 -32 20 -10 11 -23 20 -29 20 -5 0 -27 17 -48 37 -21 20
-38 32 -38 25 0 -7 -7 -12 -16 -12 -12 0 -15 6 -10 25 5 20 3 25 -14 25 -11 0
-20 3 -20 8 0 4 -12 12 -26 19 -20 9 -26 9 -31 -3 -9 -24 -33 -16 -33 11 0 24
-2 25 -72 25 -84 0 -138 -16 -138 -41 0 -21 -22 -38 -28 -21 -5 16 -32 3 -32
-16 0 -19 -49 -72 -66 -72 -6 0 -18 -7 -25 -17 -11 -13 -11 -17 -1 -20 20 -7
14 -44 -8 -50 -18 -5 -20 -14 -20 -94 0 -53 4 -89 10 -89 6 0 10 -9 10 -19 0
-11 -4 -23 -10 -26 -5 -3 -10 -15 -10 -25 0 -12 -9 -22 -24 -26 -17 -4 -22
-11 -19 -25 6 -21 -47 -83 -54 -63 -2 7 -17 7 -48 0 -33 -8 -45 -15 -45 -29 0
-23 -33 -35 -79 -27 -30 5 -35 9 -33 28 4 30 -33 31 -41 1 -7 -24 -27 -16 -27
11 0 20 -33 37 -38 20 -7 -19 -52 31 -52 58 0 16 -7 26 -21 29 -16 4 -19 11
-15 29 4 13 2 32 -3 41 -5 10 -12 25 -15 33 -3 8 -12 23 -18 34 -10 15 -10 19
0 23 20 7 14 43 -10 63 -20 16 -21 22 -10 39 17 29 15 40 -10 63 -16 13 -19
21 -10 24 17 8 15 34 -2 34 -21 0 -30 19 -16 35 8 10 8 19 -2 37 -20 35 -116
128 -133 128 -8 0 -15 3 -15 8 0 17 -58 32 -122 32 -61 0 -68 -2 -68 -19 0
-26 -17 -35 -27 -16 -8 14 -13 14 -44 -1 -49 -25 -169 -153 -169 -181 0 -16
-6 -23 -19 -23 -20 0 -41 -43 -41 -83 0 -15 -3 -17 -13 -9 -10 8 -16 3 -27
-21 -7 -18 -18 -35 -24 -39 -6 -4 -5 -12 3 -22 14 -17 7 -36 -14 -36 -16 0
-55 -63 -55 -89 0 -10 -9 -26 -20 -36 -17 -15 -20 -16 -20 -3 0 25 -48 10 -52
-16 -4 -29 -42 -29 -46 2 -2 13 -10 22 -21 22 -10 0 -24 6 -31 14 -6 8 -18 12
-26 9 -16 -6 -20 32 -4 42 15 10 12 52 -5 59 -21 8 -19 23 5 29 15 4 20 14 20
40 0 40 32 106 72 149 14 16 28 33 30 37 7 20 122 132 149 146 16 9 29 20 29
25 0 6 7 10 15 10 8 0 15 5 15 10 0 6 5 10 10 10 12 0 73 41 78 53 2 4 10 7
18 7 8 0 14 5 14 10 0 6 6 10 13 10 7 0 31 8 53 19 21 10 57 26 79 36 22 9 58
25 80 35 65 30 175 58 314 80 36 6 67 13 70 16 7 7 409 -3 481 -11z"/>
<path d="M7295 12607 c-16 -5 -55 -19 -85 -29 -30 -11 -64 -27 -75 -37 -11 -9
-33 -25 -48 -35 -37 -23 -43 -42 -22 -66 17 -19 32 -20 207 -20 164 0 188 2
188 16 0 24 35 12 38 -14 4 -26 46 -31 56 -7 8 22 24 18 28 -7 2 -13 11 -24
20 -26 13 -2 16 1 12 12 -4 11 -1 16 10 16 9 0 16 -8 16 -20 0 -12 7 -20 16
-20 18 0 95 -40 106 -55 5 -6 8 -5 8 3 0 6 5 12 10 12 6 0 10 -9 10 -20 0 -11
5 -20 10 -20 6 0 40 -29 75 -65 36 -36 69 -65 74 -65 5 0 11 -13 15 -30 3 -16
12 -30 20 -30 8 0 17 -15 20 -35 4 -19 15 -40 25 -47 24 -17 81 -131 81 -163
0 -14 3 -25 8 -25 11 0 32 -51 26 -62 -3 -5 2 -15 12 -22 10 -8 15 -20 11 -30
-6 -16 8 -54 25 -66 11 -9 58 -103 58 -117 0 -7 8 -16 17 -22 10 -5 18 -18 18
-28 0 -15 7 -17 36 -15 21 2 40 -1 43 -7 10 -16 56 29 56 55 0 15 9 27 27 36
15 7 32 23 38 34 6 12 17 29 23 37 7 9 12 24 10 34 -2 13 2 17 18 15 22 -3 38
25 34 61 -1 9 7 20 17 24 31 10 83 66 83 88 0 27 102 129 115 116 12 -12 75
42 75 64 0 8 5 15 10 15 6 0 10 -5 10 -12 0 -16 41 23 51 50 9 22 29 31 29 12
0 -16 70 33 70 50 0 8 29 29 65 46 59 29 66 30 75 15 8 -14 9 -13 10 6 0 27
18 40 26 19 9 -23 34 -20 34 3 0 26 18 37 26 17 9 -24 34 -20 31 5 -1 12 4 24
11 26 6 3 12 -2 12 -11 0 -9 7 -16 15 -16 8 0 15 9 15 20 0 11 7 20 15 20 8 0
15 -4 15 -10 0 -5 14 -10 30 -10 23 0 30 5 30 19 0 25 30 37 36 14 7 -26 90
-19 97 8 6 21 37 26 37 6 0 -21 315 -23 354 -2 33 17 70 11 62 -11 -4 -11 10
-14 74 -14 44 0 83 -1 88 -2 4 -2 8 7 10 20 4 23 16 29 27 12 3 -5 10 -10 14
-10 14 0 61 52 61 67 0 19 -52 68 -90 85 -17 7 -30 16 -30 20 0 5 -9 8 -20 8
-11 0 -20 5 -20 10 0 6 -13 10 -30 10 -16 0 -30 5 -30 10 0 6 -22 10 -50 10
-27 0 -50 4 -50 9 0 5 -33 12 -72 15 -228 17 -258 18 -258 7 0 -7 -29 -11 -80
-11 -47 0 -80 -4 -80 -10 0 -5 -22 -10 -49 -10 -29 0 -51 -5 -53 -12 -2 -6
-21 -11 -41 -10 -20 1 -37 -3 -37 -8 0 -6 -13 -10 -30 -10 -16 0 -30 -4 -30
-10 0 -5 -11 -10 -24 -10 -13 0 -44 -10 -68 -21 -23 -12 -52 -25 -63 -29 -31
-11 -79 -34 -85 -41 -3 -3 -25 -15 -50 -27 -78 -38 -142 -78 -152 -95 -5 -9
-13 -17 -18 -17 -9 0 -32 -16 -64 -45 -6 -6 -26 -21 -44 -34 -48 -34 -192
-181 -192 -197 0 -7 -8 -18 -18 -23 -10 -5 -24 -22 -32 -38 -8 -15 -25 -39
-38 -53 -19 -21 -24 -23 -32 -10 -5 8 -10 24 -10 35 0 23 -14 47 -25 45 -7 -1
-55 87 -55 102 0 20 -42 99 -55 105 -8 3 -15 13 -16 22 -1 22 -32 74 -43 72
-5 -1 -18 16 -29 38 -11 22 -24 38 -29 35 -4 -3 -11 3 -14 13 -9 24 -105 123
-120 123 -7 0 -14 4 -16 8 -4 11 -94 72 -106 72 -6 0 -12 4 -14 9 -1 5 -10 11
-18 13 -8 2 -18 8 -22 13 -4 6 -11 10 -15 11 -4 0 -15 3 -23 7 -49 19 -115 37
-140 37 -16 0 -32 5 -35 10 -8 13 -251 11 -290 -3z"/>
<path d="M8252 9738 c-7 -7 -34 -11 -66 -10 -30 1 -57 -2 -61 -8 -3 -5 -19
-10 -36 -10 -16 0 -37 -4 -47 -9 -9 -5 -65 -33 -124 -62 -60 -28 -108 -56
-108 -60 0 -5 -6 -9 -13 -9 -8 0 -22 -9 -32 -20 -10 -11 -20 -18 -23 -15 -3 3
-10 -5 -17 -18 -6 -12 -16 -21 -22 -20 -11 2 -153 -142 -153 -155 0 -4 -12
-21 -28 -37 -15 -17 -46 -70 -70 -117 -24 -48 -47 -90 -52 -93 -5 -3 -12 -26
-16 -50 -3 -25 -11 -45 -16 -45 -5 0 -9 -17 -7 -37 3 -52 1 -65 -10 -58 -8 4
-15 -132 -12 -225 1 -8 1 -36 1 -61 0 -30 5 -49 13 -52 9 -3 12 -16 9 -36 -2
-19 0 -31 7 -31 6 0 11 -9 11 -20 0 -11 4 -20 8 -20 5 0 15 -18 22 -40 7 -22
17 -40 21 -40 4 0 10 -14 14 -31 4 -17 13 -33 20 -35 7 -3 16 -16 19 -29 3
-13 19 -36 36 -52 16 -15 30 -32 30 -36 0 -13 255 -269 300 -302 23 -17 50
-37 59 -45 30 -26 101 -61 111 -55 6 3 13 -1 17 -10 4 -13 13 -15 35 -11 20 4
30 1 34 -9 6 -15 14 -15 129 -14 11 0 41 -1 66 -1 34 -1 48 3 53 15 4 11 12
14 26 10 21 -7 122 41 159 76 11 11 24 18 28 17 14 -5 142 81 153 103 6 11 17
18 23 16 7 -2 25 9 40 25 15 16 32 26 36 24 9 -6 61 48 61 64 0 5 6 7 13 5 17
-7 107 72 107 94 0 23 19 41 36 34 10 -3 14 3 14 19 0 34 28 88 46 88 20 0 17
11 -11 43 -29 33 -41 34 -49 5 -4 -16 -8 -20 -16 -12 -14 14 -139 -44 -140
-66 -1 -10 -3 -11 -6 -3 -7 16 -34 5 -34 -14 0 -8 -6 -13 -12 -11 -15 5 -38
-15 -38 -32 0 -6 -6 -10 -12 -9 -21 3 -48 -12 -48 -28 0 -7 -6 -13 -12 -12
-27 3 -36 -2 -41 -22 -3 -12 -11 -19 -19 -16 -14 5 -68 -19 -68 -31 0 -4 -25
-18 -55 -32 -30 -14 -55 -31 -55 -38 0 -7 -6 -12 -12 -11 -22 4 -48 -12 -48
-28 0 -13 -3 -13 -15 -3 -12 10 -16 9 -21 -3 -3 -9 -12 -13 -20 -10 -8 3 -14
-1 -14 -10 0 -21 -19 -32 -33 -18 -17 17 -34 13 -40 -11 -5 -18 -8 -19 -21 -8
-13 10 -19 10 -31 0 -16 -14 -35 -6 -35 16 0 10 -12 14 -38 14 -21 0 -43 5
-50 12 -9 9 -15 9 -24 0 -17 -17 -28 -15 -28 7 0 25 -26 47 -33 29 -4 -10 -8
-10 -16 2 -5 8 -7 18 -5 22 3 4 -2 8 -10 8 -8 0 -23 11 -34 25 -11 14 -26 23
-34 20 -16 -7 -98 76 -98 98 0 8 -10 22 -21 33 -12 10 -25 29 -30 41 -5 15
-14 21 -24 17 -10 -4 -15 0 -15 12 -1 23 -19 48 -42 57 -10 3 -18 19 -20 39
-2 20 -8 32 -15 31 -14 -3 -73 106 -73 133 0 9 -8 23 -17 30 -17 13 -17 15 0
28 25 19 25 173 0 191 -15 11 -15 15 -4 29 10 12 17 14 27 5 20 -16 19 18 -1
37 -18 19 -9 44 17 44 17 0 19 6 17 48 -3 54 16 102 41 102 18 0 30 27 30 68
0 15 6 22 20 22 11 0 20 4 20 8 0 5 29 38 65 75 36 37 65 72 65 77 0 15 20 12
20 -2 0 -7 12 -1 25 15 13 15 29 27 34 27 6 0 18 11 27 24 9 15 21 22 30 19 8
-3 14 1 14 11 0 19 11 21 28 4 9 -9 15 -9 24 0 7 7 22 12 34 12 13 0 26 5 29
10 3 6 19 10 34 10 20 0 30 6 34 20 5 20 37 29 37 10 0 -6 38 -10 95 -10 57 0
95 4 95 10 0 6 7 10 15 10 8 0 15 -9 15 -20 0 -15 7 -20 25 -20 14 0 25 5 25
10 0 6 5 10 10 10 6 0 10 -9 10 -20 0 -22 35 -28 43 -7 4 7 8 3 13 -11 4 -15
12 -21 21 -18 8 3 24 -3 35 -14 13 -12 29 -18 40 -14 12 3 18 0 18 -9 0 -8 8
-18 18 -21 38 -14 72 -38 72 -50 0 -8 11 -21 25 -30 14 -9 25 -23 25 -32 0 -8
7 -14 17 -12 10 2 19 -5 22 -17 3 -11 18 -37 34 -56 15 -20 27 -41 27 -47 0
-6 6 -15 13 -19 7 -4 18 -19 25 -33 7 -14 21 -38 31 -55 11 -18 17 -41 14 -56
-3 -15 0 -30 6 -33 6 -4 11 -20 11 -35 0 -15 6 -49 14 -74 8 -27 10 -49 5 -53
-5 -3 -9 -76 -9 -163 l0 -157 34 -33 c20 -19 39 -30 46 -26 7 4 14 -1 17 -14
6 -24 23 -28 23 -6 0 9 8 14 23 12 16 -1 26 6 36 31 8 17 20 32 27 32 8 0 15
21 19 55 5 37 12 55 21 55 11 0 14 27 14 135 0 122 -2 137 -20 155 -16 16 -18
25 -10 40 16 31 13 63 -6 56 -14 -5 -16 -1 -11 34 3 22 1 40 -4 40 -5 0 -9 8
-9 18 0 34 -21 92 -34 92 -13 0 -59 89 -59 115 0 8 -9 15 -19 15 -13 0 -18 8
-18 30 0 20 -5 30 -15 30 -8 0 -23 18 -32 40 -10 22 -23 38 -29 36 -13 -5 -54
38 -54 57 0 19 -20 36 -36 30 -8 -3 -17 3 -21 13 -13 35 -93 93 -198 144 -38
18 -71 37 -73 42 -2 4 -14 8 -27 8 -13 0 -27 5 -30 11 -4 6 -22 9 -40 8 -18
-2 -40 3 -49 10 -10 9 -30 12 -55 8 -24 -3 -50 1 -66 9 -33 17 -117 18 -133 2z"/>
<path d="M6206 9544 c-4 -12 -14 -14 -36 -9 -19 4 -30 3 -30 -4 0 -6 -9 -11
-20 -11 -11 0 -34 -8 -52 -19 -82 -46 -108 -64 -108 -72 0 -5 -5 -9 -10 -9
-12 0 -120 -108 -120 -119 0 -4 -9 -16 -20 -26 -11 -10 -20 -22 -20 -27 0 -5
-9 -18 -20 -30 -11 -12 -20 -28 -20 -35 0 -7 -4 -13 -9 -13 -9 0 -19 -37 -28
-107 -3 -24 -9 -43 -14 -43 -5 0 -9 -27 -9 -60 0 -33 4 -60 9 -60 5 0 11 -19
14 -42 7 -54 18 -101 26 -108 4 -3 17 -26 30 -52 13 -27 28 -48 33 -48 4 0 8
-6 8 -13 0 -17 108 -127 126 -127 8 0 14 -6 14 -14 0 -8 11 -17 25 -20 14 -4
25 -11 25 -16 0 -5 14 -16 30 -25 17 -9 30 -13 30 -10 0 4 7 -1 16 -9 8 -9 26
-16 39 -16 13 0 27 -5 30 -11 4 -6 19 -7 36 -4 22 5 29 3 29 -9 0 -13 14 -16
79 -16 73 0 79 2 85 22 4 18 8 20 18 10 24 -24 99 -9 121 26 5 7 13 10 18 6
20 -12 59 6 59 26 0 17 5 19 25 14 15 -4 25 -2 25 5 0 6 6 11 13 11 19 0 151
136 158 162 3 13 12 22 20 21 18 -3 41 47 37 84 -3 24 0 28 20 25 26 -4 29 15
5 33 -19 14 -9 35 18 35 14 0 19 7 19 30 0 21 -5 30 -16 30 -12 0 -15 6 -9 23
4 12 7 29 7 37 0 8 -3 25 -7 38 -6 16 -3 22 9 22 12 0 16 10 16 39 0 33 -4 40
-22 43 -26 3 -38 38 -14 38 9 0 16 7 16 16 0 9 -7 14 -17 12 -21 -4 -66 74
-64 110 0 16 -5 22 -19 22 -13 0 -20 7 -20 19 0 25 -112 134 -122 118 -4 -7
-11 -2 -17 16 -10 26 -20 31 -48 28 -7 -1 -13 3 -13 10 0 6 -7 8 -15 5 -9 -3
-18 1 -22 9 -3 10 -12 13 -24 10 -14 -5 -19 -1 -19 11 0 14 -7 16 -36 11 -25
-4 -37 -2 -41 9 -8 22 -218 21 -227 -2z m361 -241 c2 -10 19 -25 36 -34 24
-12 35 -26 42 -55 6 -21 14 -45 18 -51 4 -7 3 -21 -3 -32 -5 -11 -10 -31 -10
-44 0 -23 -28 -58 -75 -96 -23 -19 -124 -15 -166 6 -16 8 -34 26 -39 39 -6 14
-15 21 -23 18 -8 -3 -18 6 -25 21 -15 33 -15 52 1 58 9 3 9 10 -2 30 -12 23
-12 31 -1 52 9 18 19 23 32 19 12 -3 18 0 18 10 0 29 54 56 114 56 31 0 56 5
56 10 0 17 22 11 27 -7z"/>
<path d="M10370 9545 c0 -13 -7 -15 -34 -10 -20 4 -36 2 -40 -4 -4 -6 -16 -11
-27 -11 -10 0 -19 -6 -19 -14 0 -9 -7 -12 -20 -9 -11 3 -20 0 -20 -6 0 -6 -3
-10 -7 -9 -15 4 -69 -30 -103 -66 -19 -20 -41 -36 -48 -36 -7 0 -17 -12 -22
-26 -6 -14 -18 -28 -28 -31 -10 -2 -22 -12 -27 -22 -16 -29 -33 -64 -47 -98
-7 -18 -19 -33 -25 -33 -7 0 -13 -11 -13 -24 0 -13 -5 -26 -10 -28 -11 -3 -13
-22 -8 -68 2 -16 -2 -24 -10 -22 -8 1 -11 -2 -7 -8 3 -5 3 -10 -2 -10 -4 0 -8
-27 -8 -59 0 -33 3 -57 6 -55 4 2 13 -3 20 -12 10 -12 10 -22 1 -46 -10 -27
-9 -31 8 -35 13 -4 20 -14 20 -30 0 -37 62 -152 83 -153 10 0 17 -8 17 -18 0
-17 80 -102 95 -102 3 0 15 -9 27 -19 11 -11 26 -17 34 -14 8 3 14 -1 14 -11
0 -20 82 -58 105 -50 9 4 18 -1 21 -11 6 -14 15 -16 45 -11 31 5 39 3 39 -9 0
-12 15 -15 80 -15 64 0 80 3 80 15 0 12 9 13 44 9 27 -4 46 -2 50 5 4 6 16 11
27 11 11 0 19 7 19 16 0 10 5 14 15 10 9 -3 18 1 22 9 4 12 8 13 20 4 11 -10
15 -8 20 10 3 13 11 20 19 17 8 -3 14 -1 14 4 0 6 7 10 15 10 8 0 14 6 12 13
-1 6 5 11 14 9 19 -3 119 100 119 123 0 11 5 15 15 12 10 -5 16 4 21 28 4 25
12 35 24 35 14 0 21 12 29 50 6 28 11 60 11 72 0 13 5 18 14 15 11 -5 14 17
12 123 0 71 -4 132 -8 136 -5 4 -8 20 -8 36 0 18 -5 28 -15 28 -8 0 -15 8 -15
18 0 9 -9 32 -20 50 -11 18 -20 39 -20 47 0 8 -9 20 -20 27 -11 7 -20 17 -20
23 0 13 -107 115 -121 115 -5 0 -12 7 -15 15 -4 8 -10 15 -15 15 -14 0 -123
53 -130 63 -4 5 -21 6 -38 2 -24 -5 -31 -3 -31 9 0 14 -17 16 -115 16 -97 0
-115 -2 -115 -15z m392 -270 c13 -1 24 -8 24 -16 1 -8 2 -20 3 -26 0 -7 7 -13
14 -13 9 0 13 -21 13 -75 0 -54 -4 -75 -13 -75 -7 0 -13 -6 -13 -13 0 -14 -31
-43 -68 -64 -27 -16 -105 -17 -147 -2 -45 17 -85 77 -85 131 0 24 -5 49 -11
55 -13 13 -4 33 17 33 8 0 14 8 14 18 0 39 62 71 145 74 42 2 64 -1 72 -11 7
-8 23 -15 35 -16z"/>
<path d="M11295 14368 c4 -18 20 -49 35 -69 16 -20 36 -51 44 -70 23 -48 65
-104 79 -104 6 0 13 -9 15 -19 2 -11 10 -25 16 -32 10 -9 15 -8 24 6 9 15 4
27 -29 71 -21 29 -39 58 -39 64 0 17 -128 185 -141 185 -7 0 -8 -12 -4 -32z"/>
<path d="M16715 9267 c-175 -45 -295 -160 -350 -337 -14 -43 -19 -104 -22
-272 l-5 -218 -214 0 -214 0 0 -110 0 -110 215 0 215 0 0 -710 0 -710 125 0
125 0 0 710 0 710 385 0 385 0 0 110 0 110 -387 0 -386 0 6 178 c7 199 19 257
70 324 63 85 205 127 328 98 98 -23 160 -59 243 -142 43 -43 80 -78 83 -78 8
0 173 143 173 150 0 4 -10 20 -22 36 -81 109 -200 195 -329 239 -75 25 -100
29 -229 31 -94 2 -163 -1 -195 -9z"/>
<path d="M20335 9266 c-136 -62 -169 -265 -59 -368 96 -89 267 -72 340 34 25
35 30 53 32 117 3 65 0 83 -21 121 -13 25 -43 58 -66 75 -37 26 -53 30 -119
33 -50 1 -88 -3 -107 -12z"/>
<path d="M17710 9130 l0 -110 265 0 265 0 0 -912 c0 -774 3 -923 15 -976 44
-188 168 -315 346 -357 95 -22 277 -20 375 5 130 33 216 82 310 174 120 120
119 108 11 199 l-92 77 -19 -27 c-67 -96 -193 -181 -304 -204 -166 -34 -309
32 -364 170 l-23 56 -3 1008 -2 1007 -390 0 -390 0 0 -110z"/>
<path d="M22047 8993 c-3 -38 -13 -177 -23 -310 l-18 -243 -213 0 -213 0 0
-110 0 -110 215 0 215 0 0 -512 c0 -419 3 -525 15 -576 44 -188 168 -315 346
-357 95 -22 277 -20 375 5 130 33 216 82 310 174 120 120 119 108 11 199 l-92
77 -19 -27 c-67 -96 -193 -181 -304 -204 -166 -34 -309 32 -364 170 -23 55
-23 63 -26 554 l-3 497 386 0 385 0 0 110 0 110 -385 0 -385 0 0 310 0 310
-104 0 -103 0 -6 -67z"/>
<path d="M23957 8993 c-3 -38 -13 -177 -23 -310 l-18 -243 -213 0 -213 0 0
-110 0 -110 215 0 215 0 0 -512 c0 -419 3 -525 15 -576 44 -188 168 -315 346
-357 95 -22 277 -20 375 5 130 33 216 82 310 174 120 120 119 108 11 199 l-92
77 -19 -27 c-67 -96 -193 -181 -304 -204 -166 -34 -309 32 -364 170 -23 55
-23 63 -26 554 l-3 497 386 0 385 0 0 110 0 110 -385 0 -385 0 0 310 0 310
-104 0 -103 0 -6 -67z"/>
<path d="M26010 8459 c-207 -53 -360 -179 -455 -374 -77 -158 -90 -226 -89
-470 0 -244 12 -306 90 -462 84 -170 226 -292 413 -355 95 -32 98 -32 286 -32
178 0 195 1 267 25 110 38 200 92 283 170 67 64 133 145 124 153 -2 1 -44 36
-93 75 l-90 73 -20 -28 c-73 -101 -174 -178 -283 -216 -97 -33 -269 -33 -366
0 -138 48 -232 135 -296 272 -29 63 -61 192 -61 245 l0 25 615 0 615 0 0 49
c0 85 -20 248 -40 328 -25 97 -96 242 -152 310 -91 108 -201 177 -342 213
-108 27 -300 27 -406 -1z m325 -224 c127 -34 222 -113 283 -238 28 -59 61
-168 62 -204 0 -10 -102 -13 -476 -13 l-476 0 7 33 c47 222 174 371 355 419
82 21 169 22 245 3z"/>
<path d="M28146 8464 c-145 -35 -279 -137 -358 -274 l-38 -65 0 158 0 157
-120 0 -120 0 0 -820 0 -820 124 0 125 0 3 463 c4 439 5 466 26 541 76 275
266 443 502 445 152 2 265 -63 349 -201 12 -21 24 -38 26 -38 4 0 198 111 205
117 12 11 -71 144 -125 199 -66 67 -170 124 -263 143 -73 15 -265 12 -336 -5z"/>
<path d="M19810 8330 l0 -110 265 0 265 0 0 -600 0 -600 -300 0 -300 0 0 -110
0 -110 725 0 725 0 0 110 0 110 -300 0 -300 0 0 710 0 710 -390 0 -390 0 0
-110z"/>
</g>
</svg>
