<?xml version="1.0" standalone="no"?>
<!DOCTYPE svg PUBLIC "-//W3C//DTD SVG 20010904//EN"
 "http://www.w3.org/TR/2001/REC-SVG-20010904/DTD/svg10.dtd">
<svg version="1.0" xmlns="http://www.w3.org/2000/svg"
 width="1047.000000pt" height="1242.000000pt" viewBox="0 0 1047.000000 1242.000000"
 preserveAspectRatio="xMidYMid meet">

<g transform="translate(0.000000,1242.000000) scale(0.100000,-0.100000)"
fill="#000000" stroke="none">
<path d="M5325 12405 c-55 -7 -131 -18 -170 -24 -75 -13 -318 -90 -323 -103
-2 -4 -7 -8 -12 -8 -4 0 -50 -23 -101 -52 -187 -102 -361 -277 -455 -456 -28
-53 -49 -102 -47 -109 10 -28 -20 -21 -58 14 -126 114 -334 213 -533 253 -105
21 -476 -11 -476 -42 0 -4 -9 -8 -20 -8 -11 0 -28 -4 -38 -9 -9 -6 -51 -24
-92 -42 -41 -18 -115 -58 -165 -88 -125 -77 -345 -292 -449 -440 -42 -60 -79
-118 -82 -128 -4 -10 -33 -71 -65 -136 -33 -65 -59 -125 -59 -133 0 -8 -4 -14
-10 -14 -5 0 -10 -8 -10 -17 0 -16 -19 -77 -40 -128 -5 -11 -11 -33 -13 -50
-3 -16 -11 -48 -17 -70 -42 -148 -48 -197 -51 -407 -3 -193 5 -297 24 -309 13
-9 -3 -36 -35 -57 -112 -74 -141 -95 -185 -133 -28 -24 -79 -66 -114 -94 -72
-57 -429 -410 -532 -527 -37 -43 -106 -126 -152 -185 -47 -60 -104 -132 -127
-161 -24 -29 -50 -65 -58 -80 -8 -15 -34 -52 -56 -82 -23 -30 -47 -66 -54 -80
-7 -14 -32 -54 -55 -90 -23 -36 -79 -137 -125 -225 -45 -88 -86 -167 -91 -175
-32 -59 -118 -256 -133 -305 -18 -60 -32 -96 -46 -125 -4 -9 -11 -30 -14 -47
-4 -17 -14 -37 -22 -44 -8 -6 -14 -22 -14 -35 0 -14 -4 -32 -9 -42 -18 -36
-30 -68 -35 -97 -10 -57 -28 -140 -36 -160 -4 -11 -15 -47 -25 -80 -9 -33 -21
-71 -25 -85 -5 -14 -14 -63 -20 -110 -6 -47 -17 -110 -25 -140 -7 -30 -19
-111 -25 -180 -7 -69 -19 -143 -27 -165 -12 -33 -15 -111 -16 -418 -1 -207 1
-377 5 -377 11 0 16 -26 39 -195 31 -230 59 -388 85 -475 9 -30 22 -84 30
-120 12 -62 33 -130 60 -195 7 -16 15 -47 19 -67 4 -21 11 -38 16 -38 5 0 9
-11 9 -24 0 -14 4 -28 10 -31 5 -3 10 -16 10 -29 0 -12 4 -26 9 -32 5 -5 14
-27 21 -49 19 -59 97 -242 131 -304 16 -30 29 -61 29 -68 0 -7 5 -13 10 -13 6
0 10 -5 10 -10 0 -18 128 -268 178 -348 148 -234 155 -245 287 -423 214 -289
601 -673 879 -874 54 -38 116 -84 139 -100 89 -64 317 -203 427 -260 l115 -60
-3 -45 c-2 -25 -5 -121 -8 -214 -5 -163 -5 -168 -24 -151 -22 20 -85 17 -85
-4 0 -8 -8 -19 -18 -25 -14 -9 -20 -7 -28 6 -15 27 -48 22 -59 -8 -10 -26 -11
-26 -37 -9 -26 17 -27 17 -46 -9 -18 -25 -20 -26 -32 -9 -10 13 -16 15 -26 6
-8 -6 -31 -14 -53 -17 -21 -4 -48 -18 -62 -33 -12 -13 -28 -22 -34 -18 -13 8
-100 -32 -169 -79 -29 -20 -62 -36 -72 -36 -12 0 -19 -7 -19 -20 0 -13 -12
-25 -35 -34 -19 -8 -35 -19 -35 -25 0 -19 -49 -63 -64 -58 -9 4 -16 -2 -20
-15 -4 -18 -8 -19 -20 -9 -12 10 -18 8 -31 -13 -10 -14 -23 -26 -29 -26 -15 0
-96 -82 -96 -98 0 -7 -4 -12 -9 -12 -5 0 -12 -12 -16 -27 -3 -16 -12 -35 -20
-43 -17 -20 -26 -67 -31 -160 -4 -70 -2 -79 29 -135 18 -32 47 -67 63 -77 85
-51 89 -52 169 -52 85 0 182 25 192 50 3 8 11 14 18 14 7 0 33 18 58 40 25 22
48 40 52 40 4 0 18 9 32 20 19 15 41 20 84 20 80 0 89 -11 89 -114 0 -45 7
-108 15 -141 33 -126 130 -246 246 -304 35 -17 70 -38 78 -45 20 -18 250 -18
272 0 8 6 28 14 44 18 39 9 101 46 156 92 47 39 109 135 109 170 0 12 7 24 15
28 11 4 14 13 9 30 -4 18 -1 27 15 36 23 12 28 49 10 82 -9 16 -7 24 10 42 14
15 21 35 21 63 0 51 32 128 59 142 27 15 65 14 105 -3 41 -17 81 -77 165 -244
51 -103 69 -127 137 -192 102 -98 156 -125 249 -124 107 1 171 42 265 167 l43
58 1 123 c1 88 -3 130 -13 149 -11 21 -12 29 -1 42 8 10 9 15 1 15 -6 0 -11
10 -11 22 0 12 -17 38 -40 59 -22 21 -40 45 -40 53 0 8 -14 24 -30 36 -17 12
-30 29 -30 39 0 37 -114 143 -133 124 -10 -9 -37 18 -37 36 0 16 -39 61 -52
61 -4 0 -8 -8 -11 -17 -4 -17 -4 -17 -10 0 -4 9 -9 24 -12 32 -3 11 -12 14
-30 9 -20 -5 -25 -3 -25 14 0 11 -7 25 -15 32 -12 10 -15 10 -15 -4 0 -9 -4
-16 -10 -16 -5 0 -10 11 -10 25 0 26 -14 33 -26 14 -4 -7 -11 -2 -18 12 -6 12
-18 25 -26 29 -83 41 -93 45 -97 33 -9 -24 -33 -14 -33 14 0 26 -1 26 -14 7
-14 -18 -15 -18 -25 8 -12 33 -50 47 -63 24 -11 -20 -26 -12 -38 20 -10 27
-30 33 -30 9 0 -23 -17 -18 -23 7 -6 21 -7 21 -25 5 -24 -22 -32 -21 -32 3 0
28 -27 36 -50 15 -19 -17 -20 -17 -29 9 -12 30 -23 33 -41 11 -18 -21 -29 -19
-40 10 -6 15 -17 25 -30 25 -27 0 -25 14 5 34 25 16 34 46 15 46 -13 0 -13 47
0 55 5 3 10 14 10 23 1 44 24 46 105 10 27 -12 297 -81 465 -119 119 -27 264
-51 480 -79 92 -13 810 -11 900 1 41 6 107 15 145 20 161 20 397 65 493 94 17
6 22 3 22 -9 0 -10 5 -14 10 -11 6 3 10 -3 10 -14 0 -11 5 -23 10 -26 7 -4 7
-13 0 -25 -6 -11 -8 -30 -5 -43 8 -28 -19 -58 -29 -32 -9 23 -25 18 -37 -13
-10 -25 -12 -26 -23 -10 -18 24 -36 23 -36 -2 0 -24 -15 -27 -24 -4 -8 20 -26
9 -26 -17 0 -20 -24 -26 -35 -9 -3 5 -53 -14 -116 -45 -81 -41 -112 -62 -119
-81 -8 -19 -15 -24 -30 -19 -15 5 -22 0 -30 -20 -8 -21 -13 -25 -24 -16 -14
12 -27 2 -39 -31 -4 -11 -12 -15 -22 -12 -18 7 -55 -22 -55 -42 0 -8 -15 -20
-32 -27 -51 -22 -99 -67 -118 -113 -11 -23 -28 -48 -39 -54 -12 -6 -21 -17
-21 -25 0 -8 -6 -18 -14 -22 -7 -4 -26 -36 -41 -71 -15 -34 -35 -67 -44 -71
-13 -8 -13 -11 -1 -26 12 -15 11 -19 -8 -33 -15 -12 -20 -23 -16 -39 4 -14 0
-33 -10 -48 -20 -31 -21 -74 0 -103 8 -12 18 -34 20 -48 24 -133 231 -275 351
-242 140 38 242 141 378 383 72 127 139 195 192 195 33 0 83 -51 83 -85 0 -14
7 -39 15 -55 9 -18 12 -40 9 -60 -5 -21 -2 -36 10 -49 13 -14 15 -28 10 -58
-4 -26 -2 -43 5 -47 6 -4 11 -16 11 -27 0 -62 101 -197 190 -254 114 -75 159
-89 285 -89 106 -1 113 0 185 35 113 55 230 163 230 214 0 8 4 15 8 15 13 0
32 47 32 76 0 14 7 32 15 40 17 17 20 80 5 89 -13 8 -13 68 -1 81 5 5 11 20
13 34 3 24 6 25 73 25 l70 -1 114 -77 c119 -81 183 -107 261 -107 155 0 257
96 268 252 4 52 1 73 -12 92 -8 14 -13 32 -10 40 3 8 -3 25 -15 37 -11 12 -23
34 -26 50 -4 15 -17 35 -31 44 -13 9 -32 34 -40 55 -15 37 -34 54 -34 30 0
-18 -15 -11 -25 12 -6 12 -30 37 -55 55 -25 18 -67 49 -95 70 -27 21 -55 37
-61 35 -7 -1 -14 7 -17 19 -4 16 -11 20 -26 16 -28 -7 -71 14 -71 35 0 22 -91
70 -128 67 -44 -3 -73 11 -67 31 8 24 -9 34 -25 15 -16 -19 -30 -19 -30 -1 0
24 -20 29 -35 10 -13 -18 -14 -17 -24 9 -12 30 -26 35 -35 11 -8 -20 -26 -9
-26 17 0 23 -17 25 -41 3 -20 -18 -43 -10 -35 12 9 23 -24 29 -57 11 -32 -19
-47 -15 -47 14 0 17 -7 19 -57 19 -32 0 -65 -6 -74 -13 -10 -8 -42 -11 -90 -9
l-74 3 5 125 5 125 50 18 c80 28 391 175 505 239 189 105 424 261 513 340 37
32 41 33 95 27 31 -4 68 -10 82 -15 96 -32 292 -37 430 -11 30 6 71 13 90 16
19 4 44 10 55 14 11 5 52 19 90 31 124 40 389 182 467 250 9 8 52 44 94 80 95
80 224 209 284 284 25 31 61 75 81 99 60 71 124 159 154 212 16 28 33 52 37
53 4 2 8 8 8 13 0 6 18 36 39 68 22 32 53 85 69 117 16 32 42 80 57 107 38 67
35 144 -7 178 -18 14 -18 19 -7 37 11 18 9 26 -14 61 -15 23 -52 70 -82 105
l-54 65 84 44 c144 77 195 117 360 282 187 187 281 297 355 415 29 47 66 105
82 130 35 54 137 263 141 289 2 11 8 25 14 33 26 32 95 218 114 308 24 111 31
148 36 193 3 34 11 50 25 58 17 9 19 17 13 47 -9 51 -9 73 0 265 6 127 5 180
-5 222 -10 43 -11 58 -2 67 7 7 12 42 12 84 0 65 -2 73 -24 88 -16 10 -23 22
-19 35 2 10 0 22 -6 25 -6 4 -11 20 -11 36 0 16 -4 32 -10 35 -5 3 -10 19 -10
36 0 16 -4 37 -9 47 -5 9 -25 68 -45 130 -49 152 -109 277 -166 348 -14 17
-32 41 -40 54 -32 50 -49 60 -99 60 -27 0 -56 -3 -64 -6 -8 -3 -38 -52 -67
-110 -28 -57 -61 -109 -72 -115 -12 -6 -17 -17 -14 -26 4 -10 -7 -27 -34 -50
-22 -19 -40 -41 -40 -48 0 -22 -61 -86 -95 -101 -16 -7 -43 -26 -59 -43 -17
-17 -34 -31 -39 -31 -13 0 -137 -91 -137 -101 0 -5 -9 -9 -20 -9 -11 0 -58
-19 -104 -42 -47 -23 -88 -39 -92 -35 -4 3 -1 20 6 36 7 18 10 48 6 73 -3 24
-9 73 -13 109 -5 36 -14 73 -21 82 -7 9 -10 26 -7 40 4 14 0 37 -8 54 -8 15
-13 40 -10 54 3 15 -1 30 -10 37 -11 9 -13 24 -10 52 4 26 2 40 -6 40 -6 0
-11 12 -11 28 0 15 -7 36 -15 46 -8 11 -15 33 -15 49 0 16 -6 43 -14 60 -16
39 -54 148 -69 202 -7 22 -14 42 -18 45 -8 7 -39 105 -39 124 0 8 14 31 30 49
17 19 30 40 30 46 0 6 4 11 8 11 25 0 172 287 172 334 0 16 6 26 15 26 17 0
20 16 6 25 -6 3 -4 17 4 33 32 65 37 81 30 102 -4 13 -1 28 8 38 8 9 18 33 21
52 4 19 11 58 17 85 13 65 32 257 31 315 0 25 -5 92 -12 150 -6 58 -14 128
-17 155 -3 28 -9 54 -14 59 -5 6 -9 24 -9 42 0 18 -5 34 -12 36 -7 3 -17 36
-24 74 -9 52 -29 103 -85 209 -69 132 -80 146 -184 250 -159 158 -248 205
-395 205 l-66 0 -1 53 c-1 30 4 58 12 67 10 11 13 39 10 97 -1 45 -5 86 -9 91
-3 5 0 23 7 41 9 26 9 40 -5 79 -10 26 -15 58 -11 70 3 14 -1 30 -11 40 -9 10
-19 34 -22 53 -10 52 -77 200 -117 261 -52 78 -163 214 -195 238 -15 12 -69
54 -120 94 -112 88 -291 183 -417 220 -49 15 -103 31 -120 36 -55 17 -159 30
-280 36 -107 6 -177 2 -372 -22 -51 -7 -53 -6 -53 18 0 13 -4 28 -9 34 -5 5
-18 32 -29 60 -18 50 -18 51 -1 47 27 -7 25 38 -2 63 -11 10 -27 34 -35 52 -7
19 -25 47 -39 64 -14 16 -25 36 -25 43 0 22 -50 75 -71 75 -10 0 -19 -3 -19
-7 0 -12 40 -76 63 -100 11 -13 16 -23 11 -23 -12 0 -64 52 -64 63 0 21 -51
72 -94 96 -74 40 -85 47 -109 69 -48 44 -208 127 -352 182 -140 54 -463 87
-630 65z m75 -225 c16 -29 100 -29 107 0 5 17 11 19 42 14 40 -7 46 -11 46
-27 0 -19 61 -20 89 -2 25 17 26 16 36 -9 11 -30 44 -35 58 -9 8 14 12 13 27
-10 9 -15 26 -27 36 -27 10 0 21 -4 24 -10 3 -5 16 -10 29 -10 12 0 28 -6 35
-12 10 -11 14 -9 22 5 14 23 29 12 29 -21 1 -43 83 -186 109 -190 28 -4 27 5
-7 59 -15 24 -33 57 -40 73 -12 26 -11 28 5 20 10 -4 33 -7 51 -7 25 1 32 -3
32 -16 0 -25 26 -47 33 -29 3 9 7 6 12 -7 30 -90 74 -138 95 -105 11 17 100
-55 100 -81 0 -10 13 -25 30 -34 17 -9 30 -23 30 -31 0 -31 81 -219 102 -237
18 -15 20 -22 10 -38 -16 -25 -15 -58 3 -89 19 -33 19 -102 0 -147 -18 -43
-19 -80 -3 -85 8 -3 5 -13 -10 -33 -12 -15 -22 -38 -22 -51 0 -14 -4 -32 -8
-42 -91 -189 -115 -222 -250 -345 -12 -11 -27 -37 -33 -56 -9 -31 -7 -42 14
-81 24 -45 24 -45 76 -45 34 1 56 6 62 15 8 11 12 12 16 3 7 -19 43 3 43 27 0
22 16 27 22 8 6 -17 136 116 144 147 3 14 15 30 25 36 11 5 19 18 19 29 0 11
12 26 26 33 31 16 74 118 74 172 0 18 7 38 15 45 11 9 12 17 4 31 -8 15 -5 25
10 46 23 28 27 73 10 90 -11 11 4 53 19 53 9 0 9 66 0 76 -5 4 -8 17 -8 29 0
11 -5 26 -12 33 -8 8 -8 15 1 26 7 8 11 25 9 38 -2 18 2 24 23 26 14 2 31 -4
39 -12 19 -24 255 -23 268 1 8 14 16 15 43 7 19 -5 34 -16 34 -24 0 -22 53
-25 75 -5 22 20 40 12 40 -16 0 -23 32 -26 54 -4 20 20 25 19 36 -10 11 -28
28 -33 36 -10 9 22 23 18 34 -10 11 -29 30 -33 30 -7 1 14 5 12 23 -10 26 -32
109 -68 115 -50 2 7 18 -4 37 -24 27 -28 38 -34 59 -28 21 5 26 3 26 -14 0
-11 7 -25 15 -32 12 -10 15 -9 15 5 0 14 3 15 15 5 8 -7 15 -17 15 -23 0 -22
44 -57 71 -57 20 0 37 -12 63 -42 20 -23 36 -50 36 -59 0 -10 16 -31 35 -46
21 -17 35 -37 35 -50 0 -12 17 -39 38 -60 44 -44 71 -101 54 -112 -8 -5 -8
-17 2 -44 7 -20 15 -40 19 -43 4 -4 7 -14 7 -23 0 -8 10 -25 22 -38 19 -20 20
-26 8 -47 -8 -17 -10 -38 -5 -63 8 -44 8 -51 -1 -120 -4 -37 -3 -53 5 -53 18
0 13 -20 -10 -39 -19 -15 -20 -20 -8 -40 12 -20 12 -24 -5 -36 -10 -7 -15 -19
-11 -25 4 -6 -2 -20 -14 -31 -12 -11 -21 -29 -21 -39 0 -11 -4 -20 -10 -20 -5
0 -10 -8 -10 -19 0 -10 -7 -24 -15 -31 -8 -7 -15 -18 -15 -24 0 -29 -176 -200
-259 -251 -124 -77 -149 -100 -157 -141 -7 -36 9 -74 31 -74 8 0 15 -9 15 -20
0 -16 7 -20 35 -20 28 0 35 4 35 19 0 29 17 35 45 17 32 -21 34 -21 45 10 9
22 13 24 25 14 12 -10 26 -7 71 15 31 15 59 36 61 46 3 11 11 19 19 19 24 0
64 23 64 37 0 7 10 17 23 22 37 15 137 141 184 234 16 31 33 54 36 50 4 -3 16
2 26 11 15 14 24 15 40 6 12 -6 21 -17 21 -25 0 -20 34 -19 50 0 11 14 14 13
26 -4 19 -27 127 -86 132 -72 6 18 22 13 22 -7 0 -10 12 -29 26 -43 43 -40
134 -166 156 -216 11 -26 31 -56 44 -66 18 -14 22 -24 18 -46 -5 -22 -1 -31
20 -45 21 -13 24 -20 16 -35 -8 -15 -5 -20 12 -24 20 -6 20 -7 5 -31 -21 -31
-21 -36 -3 -36 7 0 19 -7 26 -15 10 -13 10 -19 -4 -33 -21 -24 -20 -27 5 -62
19 -24 20 -33 10 -61 -15 -45 -14 -79 5 -100 11 -12 18 -44 22 -88 4 -57 1
-77 -17 -113 -24 -50 -26 -85 -9 -124 11 -24 10 -28 -10 -42 -26 -17 -28 -29
-6 -54 14 -14 14 -20 4 -33 -7 -8 -19 -15 -26 -15 -18 0 -18 -5 3 -36 15 -24
15 -25 -5 -31 -25 -6 -27 -15 -11 -44 9 -17 7 -21 -9 -26 -17 -4 -19 -11 -15
-37 4 -27 0 -37 -21 -53 -22 -17 -47 -60 -50 -85 -1 -3 -4 -10 -8 -14 -5 -4
-8 -14 -8 -22 0 -8 -11 -28 -26 -44 -14 -17 -28 -43 -31 -59 -3 -16 -13 -29
-26 -33 -12 -3 -22 -4 -22 -3 -1 1 -17 27 -37 57 -19 30 -48 80 -63 110 -15
30 -38 69 -51 87 -13 17 -24 36 -24 42 0 6 -4 11 -10 11 -5 0 -19 17 -30 38
-28 50 -49 82 -85 127 -16 21 -57 72 -90 113 -141 179 -373 410 -589 587 -53
44 -238 172 -391 271 -99 64 -372 197 -500 244 -11 4 -31 12 -45 18 -74 33
-145 55 -311 96 -263 65 -266 66 -303 66 -19 0 -47 5 -63 11 -42 16 -313 -16
-313 -37 0 -16 22 -44 31 -39 5 4 22 -7 38 -24 28 -30 61 -41 61 -21 0 18 18
11 23 -9 5 -22 66 -44 82 -30 16 15 32 10 38 -11 5 -20 27 -28 27 -10 0 18 27
10 44 -12 15 -22 16 -22 30 -4 16 19 36 14 36 -9 0 -23 18 -27 45 -9 24 16 25
15 35 -10 11 -29 28 -34 36 -11 9 22 23 18 34 -9 7 -19 20 -27 66 -36 31 -7
86 -23 122 -36 51 -18 68 -21 74 -11 6 9 14 5 29 -13 14 -17 22 -21 26 -12 7
18 23 15 23 -5 0 -22 80 -57 110 -48 13 4 22 1 26 -9 8 -21 88 -56 112 -49 14
3 21 -2 25 -16 5 -20 103 -72 166 -88 14 -3 38 -19 53 -35 16 -17 36 -28 52
-28 18 0 30 -8 38 -25 6 -14 19 -25 28 -25 10 0 23 -7 30 -15 7 -8 21 -15 31
-15 11 0 19 -6 19 -14 0 -20 26 -40 35 -26 9 15 25 2 25 -20 0 -18 22 -33 52
-34 9 -1 27 -17 40 -36 16 -23 33 -36 51 -38 15 -2 27 -9 27 -16 0 -19 82 -93
122 -109 20 -9 44 -28 54 -44 25 -40 116 -133 131 -133 13 0 63 -61 63 -77 0
-6 16 -30 35 -53 19 -23 35 -46 35 -52 0 -6 7 -8 15 -4 10 3 20 -5 30 -27 12
-27 22 -43 43 -77 2 -2 7 2 11 9 6 10 12 3 21 -23 6 -20 20 -41 31 -46 10 -6
19 -16 19 -23 0 -7 9 -20 20 -30 11 -9 20 -23 20 -32 0 -8 9 -19 20 -25 11 -6
20 -19 20 -30 0 -11 9 -24 20 -30 12 -6 20 -21 20 -36 0 -16 12 -37 30 -54 16
-15 30 -36 30 -45 0 -19 10 -41 84 -196 29 -61 59 -109 71 -115 15 -7 22 -24
28 -72 7 -50 12 -62 25 -60 14 2 16 -4 14 -32 -3 -28 1 -39 24 -57 23 -18 26
-25 16 -35 -17 -17 -15 -26 8 -33 23 -7 27 -25 5 -25 -23 0 -18 -16 10 -28 28
-13 32 -27 10 -40 -14 -7 -14 -12 -1 -43 8 -20 22 -41 30 -49 19 -15 21 -36 4
-43 -9 -4 -5 -12 12 -25 21 -18 23 -23 12 -47 -15 -33 -15 -35 3 -35 21 0 31
-30 14 -41 -11 -7 -12 -12 -1 -26 28 -41 37 -66 24 -71 -18 -6 -15 -27 8 -47
21 -19 27 -45 10 -45 -17 0 -11 -38 11 -82 17 -33 19 -46 10 -60 -19 -30 -13
-89 10 -114 20 -21 21 -26 8 -56 -18 -43 -20 -571 -3 -603 13 -24 8 -45 -12
-45 -18 0 -19 -68 -2 -105 10 -22 8 -28 -10 -48 -24 -26 -27 -48 -11 -79 9
-16 7 -24 -10 -42 -24 -26 -26 -38 -8 -67 10 -18 9 -23 -10 -36 -15 -10 -23
-26 -23 -44 0 -15 -4 -31 -10 -34 -5 -3 -10 -17 -10 -31 0 -13 5 -24 10 -24
19 0 10 -32 -10 -37 -20 -5 -29 -43 -10 -43 18 0 10 -27 -12 -43 -22 -14 -23
-15 -5 -35 18 -20 18 -21 -5 -36 -14 -9 -30 -33 -36 -53 -10 -31 -9 -38 6 -49
15 -11 15 -14 -8 -32 -21 -17 -23 -22 -11 -36 12 -14 11 -19 -3 -35 -10 -11
-14 -25 -10 -36 5 -12 1 -22 -10 -31 -10 -7 -15 -17 -12 -23 4 -6 -3 -20 -14
-31 -17 -17 -19 -24 -10 -36 14 -16 6 -44 -13 -44 -15 0 -40 -83 -26 -88 16
-6 10 -31 -11 -42 -11 -6 -22 -26 -26 -46 -8 -43 -28 -53 -57 -27 -71 63 -106
65 -156 8 -33 -38 -41 -82 -15 -92 8 -3 20 -16 25 -29 4 -13 15 -24 24 -24 8
0 15 -9 15 -20 0 -12 12 -33 28 -48 26 -26 39 -44 63 -90 7 -12 17 -22 23 -22
9 0 49 -49 94 -115 4 -6 19 -16 34 -22 15 -7 35 -27 44 -45 20 -39 152 -183
168 -183 6 0 16 -11 22 -24 7 -13 51 -66 98 -117 84 -93 96 -114 76 -144 -8
-13 -11 -13 -19 -1 -10 16 -31 6 -31 -15 0 -17 -5 -18 -31 -2 -17 11 -22 10
-38 -11 -16 -20 -21 -22 -41 -11 -24 13 -129 10 -163 -5 -14 -6 -20 -2 -24 14
-4 16 -13 21 -39 21 -19 0 -43 6 -54 12 -15 10 -22 10 -32 0 -17 -17 -39 -15
-36 3 2 11 -15 23 -54 39 -103 42 -240 138 -325 229 -29 31 -53 61 -53 66 0
20 -41 11 -65 -14 -39 -38 -31 -103 22 -168 13 -16 23 -35 23 -43 0 -20 147
-171 205 -209 75 -50 154 -95 173 -99 62 -13 83 -20 88 -27 3 -5 18 -9 33 -9
15 0 31 -4 36 -9 10 -9 47 -14 178 -27 47 -5 57 -9 57 -25 0 -10 -9 -24 -20
-31 -11 -7 -20 -20 -20 -28 0 -8 -9 -21 -20 -28 -11 -7 -20 -21 -20 -32 0 -10
-9 -24 -21 -30 -11 -7 -25 -25 -31 -40 -5 -16 -18 -32 -28 -35 -21 -7 -46 -41
-51 -70 -3 -11 -11 -20 -19 -20 -8 0 -76 -64 -150 -142 -76 -80 -137 -138
-141 -132 -5 8 -9 8 -13 0 -4 -6 -29 -11 -55 -11 -31 0 -53 -5 -61 -15 -17
-21 -30 -19 -30 5 0 26 -25 36 -46 19 -14 -12 -19 -11 -32 9 -17 26 -32 29
-32 6 0 -9 -3 -14 -7 -12 -5 2 -36 17 -70 33 -34 17 -62 35 -63 41 0 13 -52
64 -65 64 -13 0 -135 122 -135 135 0 6 -16 26 -35 45 -19 19 -35 43 -35 55 0
12 -13 36 -29 53 -15 18 -36 51 -45 75 -32 78 -42 92 -64 95 -31 5 -42 -31
-42 -143 0 -83 2 -96 20 -105 11 -6 17 -16 14 -25 -3 -8 1 -24 10 -37 9 -12
16 -32 16 -43 0 -24 51 -106 100 -160 99 -109 188 -179 294 -229 31 -15 56
-32 53 -39 -2 -6 -27 -18 -57 -27 -39 -11 -55 -22 -62 -39 -8 -22 -10 -23 -26
-7 -26 22 -63 21 -69 -3 -7 -27 -31 -34 -56 -16 -29 20 -165 20 -213 0 -34
-14 -35 -14 -44 10 -11 29 -27 31 -58 9 -21 -14 -22 -14 -22 5 0 27 -20 38
-35 18 -16 -23 -25 -21 -25 3 0 11 -8 23 -17 26 -10 4 -40 16 -68 29 -27 12
-51 19 -53 14 -6 -16 -23 -9 -20 8 2 10 -5 19 -18 22 -12 3 -33 20 -48 38 -15
18 -38 33 -53 35 -16 2 -33 14 -42 30 -9 14 -31 38 -48 53 -18 15 -33 32 -33
39 0 17 -34 56 -49 56 -6 0 -11 7 -11 14 0 22 -49 111 -61 111 -10 0 -23 29
-51 112 -6 18 -17 33 -24 33 -7 0 -17 24 -24 57 -14 72 -35 119 -56 127 -16 6
-16 19 1 59 5 13 2 17 -14 17 -18 0 -21 5 -19 38 4 73 -1 112 -16 112 -21 0
-30 20 -17 33 18 18 13 62 -10 91 -19 24 -20 31 -9 51 9 16 10 41 5 82 -9 70
-9 226 0 307 5 40 3 66 -6 83 -11 21 -10 25 9 39 23 16 30 58 11 70 -8 5 -4
13 11 24 20 15 21 19 9 39 -12 19 -12 23 4 32 9 6 17 19 17 29 0 11 5 20 11
20 7 0 9 9 5 24 -4 16 1 32 14 49 11 14 20 29 20 35 0 5 20 50 45 100 25 50
45 95 45 101 0 5 6 14 14 18 7 4 32 37 54 71 54 83 166 214 241 280 33 28 62
52 66 52 3 0 11 4 18 10 7 5 32 25 57 43 45 33 62 75 28 69 -9 -1 -19 2 -23 8
-10 15 -45 12 -52 -5 -3 -9 -13 -15 -22 -14 -24 3 -69 -11 -81 -26 -5 -7 -20
-10 -33 -8 -28 5 -87 -31 -87 -53 0 -9 -6 -14 -13 -11 -16 6 -36 -5 -107 -59
-67 -50 -210 -200 -210 -220 0 -8 -5 -14 -11 -14 -13 0 -39 -25 -39 -37 0 -5
-12 -25 -26 -44 -37 -49 -90 -158 -98 -200 -4 -21 -15 -48 -25 -60 -10 -13
-16 -30 -13 -37 2 -7 -3 -21 -11 -30 -21 -24 -36 -77 -30 -102 4 -14 -1 -26
-13 -35 -17 -12 -17 -17 -6 -35 12 -19 11 -25 -8 -45 -18 -19 -20 -30 -15 -67
5 -32 3 -47 -7 -55 -11 -9 -13 -64 -13 -269 1 -240 2 -257 20 -270 15 -11 16
-17 7 -26 -19 -19 -14 -70 9 -94 17 -18 19 -26 10 -42 -15 -29 -14 -42 5 -42
13 0 15 -7 10 -34 -5 -23 -2 -37 9 -46 9 -7 13 -21 9 -35 -3 -13 -1 -26 5 -29
6 -4 11 -18 11 -30 0 -13 7 -29 15 -36 8 -7 15 -22 15 -33 0 -11 9 -39 19 -61
37 -79 61 -139 61 -151 0 -7 7 -19 16 -26 9 -8 25 -32 34 -55 10 -22 39 -71
64 -108 25 -37 46 -70 46 -73 0 -6 63 -80 113 -133 13 -14 60 -60 105 -103 74
-70 99 -107 72 -107 -5 0 -10 -9 -10 -20 0 -17 -4 -19 -26 -14 -21 5 -31 0
-60 -32 -18 -22 -34 -33 -34 -26 0 21 -16 13 -28 -13 -6 -14 -18 -25 -27 -25
-8 0 -15 -4 -15 -10 0 -5 -13 -10 -28 -10 -19 0 -39 -11 -62 -35 -19 -20 -44
-35 -57 -35 -20 0 -111 -37 -123 -51 -3 -3 -30 -15 -60 -28 -30 -13 -75 -35
-100 -50 -25 -15 -53 -30 -62 -34 -10 -3 -18 -11 -18 -16 0 -15 -62 -43 -73
-32 -13 13 -99 -23 -108 -46 -6 -16 -14 -19 -34 -15 -42 8 -105 -18 -117 -47
-9 -24 -10 -25 -22 -8 -18 23 -25 22 -36 -8 -10 -27 -30 -34 -30 -10 0 8 -4
15 -10 15 -5 0 -10 -6 -10 -14 0 -7 -7 -19 -15 -26 -12 -10 -15 -10 -15 4 0
24 -15 19 -35 -10 -16 -24 -17 -25 -30 -7 -13 17 -14 16 -25 -11 -10 -27 -12
-28 -29 -12 -24 22 -30 20 -42 -10 -9 -25 -11 -26 -28 -10 -20 18 -47 21 -56
6 -3 -5 -17 -10 -30 -10 -14 0 -29 -9 -35 -20 -11 -21 -40 -28 -40 -10 0 18
-27 10 -44 -12 -14 -21 -16 -22 -26 -5 -16 25 -41 21 -67 -10 -21 -26 -24 -26
-33 -10 -17 27 -68 23 -80 -8 -11 -29 -22 -31 -40 -10 -7 9 -29 15 -51 15 -33
0 -39 -3 -39 -20 0 -27 -30 -38 -42 -17 -7 13 -23 17 -67 17 -49 0 -59 -3 -64
-19 -6 -24 -55 -33 -81 -15 -31 21 -519 20 -560 -1 -36 -19 -35 -19 -46 10 -9
23 -14 25 -78 25 -44 0 -75 -5 -88 -15 -27 -21 -42 -18 -46 7 -2 19 -10 24
-43 26 -29 3 -43 -1 -53 -15 -13 -17 -15 -17 -36 10 -24 30 -73 37 -82 12 -9
-22 -23 -18 -34 10 -11 30 -53 34 -81 9 -16 -14 -18 -14 -29 5 -7 14 -21 21
-40 21 -16 0 -32 5 -35 10 -10 15 -46 12 -66 -6 -17 -16 -19 -15 -28 10 -11
28 -38 35 -47 11 -8 -21 -21 -19 -29 5 -6 18 -56 50 -78 50 -6 0 -19 -7 -28
-16 -17 -16 -19 -15 -28 10 -12 31 -19 32 -37 9 -11 -17 -13 -16 -23 10 -11
29 -31 37 -31 12 0 -23 -16 -18 -28 10 -13 29 -29 32 -35 8 -3 -14 -6 -12 -15
9 -13 31 -29 36 -38 13 -9 -22 -22 -18 -26 7 -2 13 -15 29 -31 36 -25 12 -30
12 -43 -5 -13 -17 -14 -17 -20 4 -3 13 -20 29 -37 38 -37 18 -37 18 -37 0 0
-8 -4 -15 -10 -15 -5 0 -10 9 -10 20 0 23 -10 26 -28 8 -10 -10 -14 -8 -18 10
-4 12 -12 22 -19 22 -7 0 -15 6 -18 13 -3 9 -10 7 -25 -6 -20 -18 -20 -18 -27
3 -5 17 -10 19 -21 9 -11 -9 -14 -7 -14 15 0 25 -15 36 -22 17 -1 -5 -15 -7
-30 -4 -20 4 -28 11 -28 26 0 16 -3 18 -12 9 -18 -18 -28 -15 -28 9 0 17 -3
19 -13 10 -11 -8 -16 -6 -24 12 -14 30 -113 92 -113 71 0 -8 -4 -12 -10 -9 -5
3 -10 16 -10 27 0 20 -1 21 -20 3 -19 -18 -20 -17 -20 3 0 26 -17 37 -34 23
-15 -13 -26 -5 -26 19 0 24 -129 115 -143 101 -17 -17 -25 -13 -29 12 -2 17
-9 22 -31 20 -19 -1 -27 3 -27 15 0 9 -9 28 -20 42 -15 20 -21 23 -31 13 -18
-18 -29 -16 -29 5 0 21 -27 62 -41 62 -5 0 -9 -7 -9 -15 0 -8 -4 -15 -10 -15
-5 0 -10 8 -10 19 0 10 -17 38 -39 62 -33 37 -41 42 -54 31 -14 -12 -18 -9
-33 19 -9 18 -39 57 -67 87 -40 41 -56 52 -73 48 -16 -4 -33 6 -72 48 -28 29
-57 69 -65 88 -21 49 -107 144 -128 140 -19 -3 -49 33 -49 59 0 29 -88 136
-120 148 -21 7 -30 17 -30 31 0 30 -18 60 -36 60 -8 0 -17 8 -21 18 -13 36
-34 79 -63 127 -17 28 -33 58 -36 67 -4 10 -15 16 -27 15 -14 -1 -23 5 -25 18
-3 11 -15 30 -28 42 -22 21 -29 43 -25 85 3 20 -15 24 -22 6 -9 -25 -29 9 -35
59 -2 26 -8 50 -11 53 -3 3 -37 68 -75 145 -38 77 -83 152 -99 168 -27 25 -29
32 -24 72 6 40 4 44 -16 47 -19 3 -22 10 -25 54 -3 44 -6 51 -21 47 -20 -5
-37 22 -21 32 21 13 11 55 -15 65 -28 11 -33 28 -10 36 8 4 15 10 15 16 0 5
-4 7 -9 4 -13 -8 -41 4 -41 17 0 6 7 19 17 29 19 21 10 36 -12 18 -12 -10 -16
-9 -21 5 -4 9 -2 21 4 27 8 8 4 16 -11 29 -22 18 -22 18 -2 33 17 13 18 18 7
35 -6 12 -12 30 -12 42 0 17 -5 20 -21 16 -27 -7 -36 18 -15 42 22 24 20 30
-9 41 -28 11 -32 25 -10 34 23 8 18 25 -10 36 -30 11 -33 30 -5 37 27 7 25 22
-4 33 -37 14 -42 30 -15 51 24 19 24 20 5 34 -11 8 -23 15 -28 15 -14 0 -9 37
7 50 21 18 19 29 -10 42 -28 13 -32 32 -10 54 23 23 18 60 -10 78 -28 19 -32
38 -10 56 9 7 15 29 15 51 0 33 -4 41 -25 49 -28 11 -32 31 -10 50 22 18 21
126 -2 138 -23 14 -33 99 -16 154 18 61 17 206 -2 242 -21 39 -6 146 20 146
23 0 21 127 -2 152 -13 15 -15 23 -6 36 5 9 16 17 24 17 21 0 25 83 5 91 -25
10 -19 43 9 54 19 7 25 17 25 39 0 15 -7 34 -15 41 -16 13 -21 50 -7 50 5 0
17 7 28 15 19 14 19 15 -4 33 -27 21 -22 44 14 60 18 9 24 19 24 42 0 17 5 41
11 52 10 18 8 24 -12 40 l-24 18 27 23 c24 20 25 24 12 41 -10 14 -11 23 -3
33 6 7 15 11 19 8 17 -10 23 18 7 30 -23 17 -21 24 8 35 17 6 25 17 25 33 0
13 5 28 12 35 9 9 8 16 -5 30 -23 25 -21 39 4 47 16 5 18 9 8 21 -9 12 -9 18
0 27 9 9 14 9 20 -2 6 -10 10 -10 16 -1 4 6 -1 20 -10 30 -18 20 -13 40 10 40
12 0 12 5 3 25 -12 28 -2 48 12 25 7 -12 12 -12 22 -2 9 9 9 15 0 24 -7 7 -12
21 -12 31 0 15 3 17 14 8 11 -9 15 -7 18 12 3 13 1 34 -4 46 -10 28 -3 41 24
41 19 0 20 4 15 45 -7 44 7 71 23 45 12 -20 32 25 24 55 -7 29 46 152 70 161
19 7 66 97 66 127 0 40 52 132 77 135 17 2 23 12 28 45 5 24 18 52 34 68 14
14 49 63 76 108 28 45 67 105 87 133 21 28 41 66 44 85 4 22 15 37 33 46 16 7
27 22 29 37 5 33 20 49 31 32 6 -10 14 -2 30 28 11 22 21 47 21 56 0 8 11 19
24 24 24 9 66 55 66 72 0 5 35 43 78 83 44 42 88 94 102 121 14 27 36 54 50
61 26 12 313 302 389 392 29 35 49 50 59 46 10 -4 61 41 159 138 113 113 143
149 143 170 0 22 4 27 26 27 14 0 24 5 22 11 -2 6 -7 11 -11 11 -18 0 -97 -27
-97 -34 0 -4 -7 -8 -15 -8 -8 0 -15 -6 -15 -12 -1 -18 -40 31 -40 49 0 8 9 17
20 20 23 6 25 15 8 44 -11 18 -10 23 9 36 26 17 29 34 11 64 -11 18 -10 23 9
36 23 15 32 53 13 53 -19 0 -10 38 12 53 23 14 23 15 5 45 -17 30 -17 30 10
50 27 19 27 21 10 39 -23 26 -22 34 10 59 27 21 27 23 10 41 -23 26 -22 43 3
43 22 0 29 35 8 42 -6 2 -9 12 -5 21 4 10 12 14 22 11 10 -4 15 0 15 10 0 9 4
24 9 34 23 46 30 86 19 99 -9 11 -6 19 17 37 24 19 29 30 27 62 -2 43 17 80
60 113 31 25 98 140 98 170 0 13 12 26 35 37 46 21 75 59 75 96 0 22 4 29 18
27 9 -1 22 -1 29 0 22 2 76 55 91 91 11 25 17 30 20 18 4 -21 18 -23 25 -5 3
8 42 33 87 56 58 31 84 50 91 69 10 26 11 26 24 8 14 -18 15 -18 26 10 9 22
13 25 16 12 6 -26 22 -22 34 10 10 25 12 26 23 10 18 -24 25 -23 37 8 9 25 11
26 28 10 26 -23 52 -20 78 12 21 25 24 25 33 10 9 -15 25 -18 85 -18 60 0 76
3 85 18 9 16 12 15 33 -9 13 -16 36 -29 57 -32 19 -3 53 -10 75 -16 25 -6 41
-7 43 -1 7 18 32 10 32 -10 0 -25 29 -40 74 -40 29 0 36 -4 36 -20 0 -21 31
-43 55 -38 9 2 21 -8 28 -22 7 -13 31 -38 54 -55 29 -21 46 -42 53 -68 6 -21
15 -35 20 -32 11 7 46 -51 59 -100 12 -44 35 -83 63 -103 10 -7 18 -21 18 -32
0 -18 62 -80 80 -80 26 0 61 26 66 49 3 14 10 36 16 47 6 13 9 68 7 132 -4
100 -7 113 -28 136 -15 16 -21 31 -17 43 5 11 0 23 -16 35 -21 17 -22 19 -5
29 25 14 47 63 47 101 0 22 7 37 19 45 11 7 36 38 57 70 21 32 75 97 121 145
46 48 83 95 83 104 0 12 6 15 25 10 18 -5 27 -2 30 9 3 8 7 22 10 31 4 12 9
13 18 6 16 -14 55 5 71 33 6 11 12 22 14 25 2 2 7 -2 12 -10 8 -12 10 -10 10
8 0 26 7 28 29 7 22 -19 65 1 69 33 4 25 22 31 22 7 0 -24 20 -17 30 11 10 25
11 25 35 10 32 -21 34 -21 46 10 9 25 11 26 28 10 26 -23 50 -20 61 9 11 28
25 32 34 9 8 -20 81 -16 81 6 0 13 31 27 67 29 10 1 22 -8 28 -19z m4669
-5264 c9 -11 10 -20 1 -36 -9 -17 -7 -24 12 -40 22 -19 22 -21 4 -34 -19 -15
-14 -36 9 -36 20 0 25 -26 9 -49 -20 -27 -14 -63 9 -67 29 -4 31 -11 13 -38
-21 -33 -20 -72 2 -88 29 -21 35 -38 19 -51 -16 -13 -26 -109 -14 -137 9 -20
-17 -93 -34 -99 -21 -6 -29 -23 -29 -59 0 -42 -22 -84 -54 -105 -15 -11 -28
-30 -32 -52 -3 -20 -15 -40 -25 -46 -11 -5 -19 -18 -19 -29 0 -11 -9 -24 -21
-30 -11 -7 -31 -36 -45 -65 -22 -51 -79 -105 -110 -105 -14 0 -84 -76 -84 -91
0 -6 -8 -8 -19 -4 -13 4 -26 -3 -44 -25 -14 -16 -30 -30 -35 -30 -5 0 -19 -11
-31 -24 -13 -14 -30 -22 -38 -19 -9 4 -16 -2 -20 -16 -4 -14 -13 -21 -30 -21
-14 0 -37 -13 -53 -29 -16 -16 -41 -32 -55 -35 -25 -6 -105 -80 -105 -97 0
-24 112 -40 125 -19 3 6 24 10 45 10 21 0 42 5 45 10 3 6 22 10 41 10 19 0 34
5 34 10 0 6 7 10 16 10 27 0 194 92 239 133 24 20 48 37 54 37 6 0 11 4 11 8
0 5 12 15 26 23 23 12 119 114 187 198 10 12 23 21 30 18 20 -6 19 -34 -2 -54
-13 -12 -17 -23 -11 -32 12 -20 1 -41 -21 -41 -23 0 -23 -8 -4 -34 20 -27 19
-35 -9 -46 -18 -6 -27 -21 -36 -59 -7 -28 -9 -63 -6 -77 5 -20 3 -27 -13 -31
-16 -4 -21 -15 -23 -56 -3 -45 -7 -54 -30 -65 -16 -7 -28 -21 -28 -32 0 -10
-4 -21 -9 -25 -6 -3 -13 -26 -17 -51 -5 -34 -12 -48 -29 -54 -25 -9 -35 -29
-35 -67 0 -17 -7 -27 -20 -30 -11 -3 -36 -33 -56 -67 -20 -33 -46 -71 -58 -83
-35 -36 -66 -80 -77 -111 -5 -15 -22 -35 -37 -44 -28 -17 -146 -136 -173 -174
-7 -11 -31 -29 -52 -39 -21 -10 -45 -31 -53 -46 -10 -20 -21 -28 -37 -26 -16
1 -26 -6 -37 -30 -10 -23 -20 -31 -32 -27 -21 6 -109 -56 -128 -91 -9 -18 -22
-25 -41 -25 -23 0 -58 28 -175 140 -82 77 -156 140 -166 140 -21 0 -38 32 -20
38 7 2 12 9 12 15 0 6 13 25 29 42 27 28 96 138 161 260 15 28 38 82 51 120
13 39 29 74 36 78 7 4 13 19 13 32 0 13 5 27 10 30 6 3 10 15 10 26 0 19 4 28
28 76 7 13 12 38 12 57 0 19 5 38 10 41 6 3 7 17 4 29 -4 16 0 25 11 30 14 5
16 14 11 41 -6 28 -3 37 9 42 13 4 15 14 11 35 -3 18 0 41 10 60 11 20 14 42
9 65 -4 24 -2 40 8 52 24 26 44 280 47 606 2 219 7 262 31 257 8 -2 47 -6 87
-9 62 -5 72 -4 72 10 0 12 9 16 33 15 21 -1 66 16 127 47 112 57 158 88 252
173 38 34 74 62 79 62 17 0 9 -28 -13 -43 -21 -14 -22 -17 -9 -38 12 -20 11
-24 -13 -42 -19 -14 -24 -25 -20 -41 7 -31 -12 -77 -36 -83 -11 -3 -20 -14
-20 -24 0 -10 -4 -21 -10 -24 -5 -3 -10 -14 -10 -24 0 -10 -10 -25 -21 -33
-12 -8 -27 -29 -33 -48 -7 -23 -18 -36 -31 -38 -12 -2 -35 -24 -53 -52 -20
-30 -46 -55 -65 -63 -18 -8 -38 -22 -46 -31 -8 -9 -29 -23 -46 -30 -40 -17
-105 -83 -105 -107 0 -24 56 -69 85 -69 14 0 29 9 35 20 8 14 17 19 30 15 15
-5 84 19 100 35 3 3 12 10 21 15 100 63 219 181 287 285 23 36 46 70 52 77 5
7 10 16 10 21 0 5 16 41 35 81 19 39 35 85 35 101 0 19 5 30 14 30 10 0 16 20
21 70 7 71 13 81 34 56z m-7259 -5158 c86 -35 95 -41 84 -60 -16 -25 -33 -103
-34 -154 l0 -52 -47 -6 c-121 -16 -155 -18 -167 -6 -8 8 -7 14 7 21 20 12 22
32 5 59 -10 16 -9 24 10 49 25 34 27 60 11 106 -7 18 -9 44 -5 59 8 33 20 32
136 -16z m3150 -139 c0 -18 6 -32 16 -36 12 -4 14 -14 9 -40 -5 -27 -2 -38 12
-48 24 -17 8 -33 -17 -17 -32 20 -60 15 -70 -13 -11 -28 -35 -33 -44 -10 -8
22 -53 19 -66 -5 -18 -34 -30 -12 -30 57 0 55 4 69 22 84 11 11 29 19 39 19
10 0 21 5 24 10 3 6 16 10 29 10 12 0 31 6 41 14 26 18 35 12 35 -25z m-3059
-379 c19 -6 53 -10 76 -10 23 0 45 -4 48 -10 3 -5 21 -10 38 -10 39 0 98 -18
242 -76 275 -109 487 -273 605 -468 26 -43 31 -64 36 -151 4 -59 4 -60 -32
-87 -24 -18 -50 -28 -71 -28 -21 0 -36 -6 -39 -15 -8 -19 -24 -20 -24 -1 0 21
-48 74 -81 92 -22 11 -29 22 -29 43 0 15 -9 36 -20 47 -11 10 -29 27 -39 37
-10 10 -24 39 -31 65 -7 26 -25 61 -40 77 -15 17 -31 39 -34 50 -7 24 -63 84
-112 122 -32 24 -39 25 -65 16 -27 -11 -31 -10 -39 13 -9 22 -15 24 -75 24
-62 0 -66 -1 -76 -27 -10 -26 -12 -27 -23 -10 -18 24 -26 21 -26 -8 0 -20 -5
-25 -24 -25 -23 0 -66 -40 -66 -62 0 -5 -13 -23 -30 -40 -23 -22 -30 -39 -30
-68 0 -21 -6 -43 -15 -50 -10 -8 -13 -21 -8 -38 4 -18 1 -29 -12 -38 -14 -11
-17 -22 -12 -57 4 -30 2 -50 -8 -63 -8 -10 -11 -29 -8 -42 6 -24 -19 -86 -40
-99 -7 -4 -17 -21 -22 -38 -13 -36 -47 -55 -103 -55 -36 0 -44 -4 -52 -25 -14
-36 -62 -34 -96 2 l-25 28 -19 -24 c-18 -24 -18 -24 -24 -3 -4 12 -20 32 -35
45 -15 12 -33 32 -39 42 -6 11 -12 14 -12 8 0 -27 -30 -13 -30 14 0 15 -10 37
-22 50 -17 18 -19 26 -10 35 8 8 12 46 12 101 0 81 -2 92 -26 119 -14 17 -28
45 -31 62 -7 33 -88 120 -124 131 -14 5 -25 1 -34 -12 -13 -17 -14 -16 -24 10
-10 26 -14 27 -75 27 -57 0 -65 -3 -81 -26 -16 -24 -17 -25 -30 -7 -13 17 -14
16 -24 -9 -11 -29 -31 -38 -31 -15 0 7 -4 6 -10 -4 -5 -9 -34 -31 -64 -49 -34
-21 -56 -42 -58 -54 -2 -12 -10 -21 -18 -22 -25 -1 -54 -16 -72 -38 -16 -19
-18 -20 -30 -5 -7 9 -24 20 -38 23 -14 4 -38 23 -55 43 l-29 36 26 21 c19 14
29 35 34 66 6 38 18 56 84 122 61 63 82 78 106 78 16 0 40 7 52 16 12 8 22 12
22 8 0 -4 8 -1 18 7 9 8 40 24 67 36 107 45 131 54 145 57 8 1 25 7 37 14 19
11 53 20 188 53 66 16 145 30 225 39 90 10 343 3 391 -10z m3554 -12 c22 -5
58 -12 80 -15 22 -3 44 -9 49 -14 6 -5 22 -9 37 -9 15 0 31 -5 34 -11 4 -6 13
-8 21 -5 8 3 22 2 32 -3 24 -12 115 -48 197 -78 39 -14 77 -31 85 -37 18 -15
64 -32 105 -41 49 -9 209 -204 191 -233 -3 -5 4 -23 15 -40 36 -61 20 -92 -47
-92 -24 0 -47 -6 -54 -15 -10 -12 -16 -10 -43 16 -17 17 -47 41 -66 54 -20 12
-42 30 -50 39 -9 11 -21 14 -39 9 -22 -5 -24 -3 -19 16 4 17 0 24 -18 31 -13
5 -26 14 -30 19 -8 14 -45 14 -45 1 0 -20 -21 -9 -30 15 -9 23 -15 25 -67 25
-83 0 -132 -16 -143 -46 -8 -20 -14 -23 -35 -18 -19 5 -25 2 -25 -9 0 -20 -48
-77 -65 -77 -19 0 -43 -32 -27 -37 18 -7 15 -27 -8 -48 -17 -15 -20 -31 -20
-92 0 -40 5 -82 12 -92 9 -15 8 -26 -6 -55 -9 -19 -22 -39 -29 -43 -7 -4 -20
-25 -29 -45 -18 -38 -24 -42 -64 -39 -31 3 -74 -17 -74 -33 0 -17 -22 -26 -66
-26 -28 0 -36 5 -44 25 -11 29 -22 31 -40 10 -17 -20 -24 -19 -35 8 -7 15 -17
21 -32 19 -22 -3 -53 30 -53 58 0 8 -9 21 -21 28 -12 8 -18 19 -15 30 3 9 -6
42 -20 72 -15 33 -21 56 -15 58 17 6 13 34 -9 57 -18 19 -19 26 -9 49 10 22 9
29 -5 45 -11 12 -15 27 -11 43 5 20 2 26 -14 31 -18 4 -20 10 -15 37 6 29 1
37 -57 96 -35 35 -69 64 -76 64 -7 0 -13 4 -13 10 0 14 -68 30 -128 30 -46 0
-55 -3 -59 -20 -5 -17 -11 -19 -39 -14 -32 6 -39 1 -108 -66 -41 -40 -82 -86
-90 -104 -8 -17 -24 -37 -35 -43 -11 -7 -23 -28 -27 -48 -3 -19 -12 -35 -19
-35 -22 0 -57 -68 -45 -90 8 -14 4 -21 -16 -35 -14 -9 -36 -41 -49 -70 -23
-51 -45 -78 -45 -56 0 19 -39 12 -50 -9 -13 -24 -38 -26 -46 -5 -4 9 -26 25
-50 36 -42 19 -56 41 -34 54 15 9 12 36 -7 57 -16 18 -15 19 5 34 13 9 22 26
22 40 0 54 91 187 188 274 64 58 103 90 108 90 3 0 10 5 17 10 28 24 83 61
100 66 9 4 17 10 17 15 0 5 5 9 11 9 5 0 65 24 132 54 134 59 186 75 357 111
108 23 129 24 345 19 127 -3 248 -10 270 -16z"/>
<path d="M2755 10193 c-92 -12 -263 -97 -279 -138 -3 -9 3 -24 14 -35 18 -18
34 -20 200 -20 160 0 180 2 190 18 9 15 12 15 33 -10 26 -32 52 -36 61 -11 6
15 10 13 31 -12 19 -23 24 -26 25 -12 0 23 17 22 29 -2 6 -10 24 -24 41 -30
17 -5 44 -20 60 -31 17 -12 30 -17 30 -11 0 19 20 12 21 -6 0 -10 34 -47 76
-83 67 -58 133 -137 133 -159 0 -5 16 -32 36 -61 39 -57 74 -132 74 -160 0 -9
7 -23 15 -30 8 -7 15 -22 15 -34 0 -11 7 -30 15 -40 8 -11 15 -32 15 -47 0
-15 5 -31 11 -35 6 -3 26 -37 43 -74 51 -106 63 -118 121 -122 48 -3 51 -2 66
30 10 18 33 48 52 67 20 19 41 50 48 68 6 18 21 38 33 43 13 5 23 21 26 41 3
22 16 39 40 55 19 13 45 44 58 68 30 57 80 109 112 117 30 7 80 51 80 71 0 9
7 11 20 7 14 -5 25 2 42 29 16 25 28 34 41 30 11 -4 31 8 59 37 43 44 120 84
143 75 7 -2 16 4 19 17 6 21 7 21 20 5 18 -24 25 -23 37 10 10 25 12 26 23 10
18 -24 25 -23 38 10 9 21 12 23 15 10 6 -24 17 -23 37 5 12 15 18 18 22 10 9
-21 50 -15 67 10 12 18 18 20 28 10 21 -21 87 -16 99 7 12 22 36 27 42 8 6
-18 233 -23 325 -8 68 12 77 12 88 -3 10 -13 29 -17 90 -17 68 0 77 2 82 20 6
23 14 25 31 8 9 -9 19 -5 42 17 16 16 30 34 30 40 0 22 -116 115 -144 115 -8
0 -18 5 -21 10 -3 6 -17 10 -30 10 -13 0 -27 5 -30 10 -3 6 -22 10 -41 10 -20
0 -43 4 -53 10 -27 14 -320 33 -334 22 -7 -6 -43 -12 -82 -15 -38 -3 -95 -10
-125 -17 -30 -6 -70 -13 -88 -17 -18 -3 -35 -9 -38 -14 -3 -5 -16 -9 -29 -9
-13 0 -26 -4 -29 -9 -3 -4 -22 -11 -42 -14 -49 -8 -332 -151 -388 -196 -25
-20 -73 -57 -108 -83 -35 -26 -101 -87 -146 -135 -111 -117 -114 -121 -151
-175 -17 -27 -36 -48 -40 -48 -10 0 -21 25 -21 46 0 7 -16 34 -35 60 -19 25
-35 51 -35 57 0 20 -59 137 -68 137 -6 0 -13 12 -17 27 -3 15 -22 45 -41 68
-19 22 -46 54 -59 70 -88 110 -102 121 -251 213 -74 46 -137 70 -267 101 -45
10 -186 13 -252 4z"/>
<path d="M3687 7324 c-5 -5 -36 -12 -70 -15 -108 -12 -153 -27 -268 -86 -160
-83 -134 -65 -277 -188 -84 -72 -250 -324 -267 -408 -4 -18 -11 -36 -15 -42
-21 -26 -39 -410 -21 -428 6 -6 11 -26 11 -44 0 -18 5 -33 10 -33 6 0 10 -7
10 -15 0 -8 13 -36 29 -63 16 -27 32 -59 36 -72 39 -122 463 -538 563 -553 13
-2 27 -9 32 -17 4 -7 17 -11 29 -7 11 2 28 -1 38 -9 25 -19 226 -20 242 -1 6
8 24 14 40 15 32 1 79 22 126 56 17 13 51 33 77 45 26 12 69 42 95 65 27 24
58 46 69 50 12 4 29 15 39 26 10 11 23 20 30 20 6 0 25 15 42 33 17 17 49 45
72 60 24 16 48 42 56 61 8 18 23 36 33 38 13 4 22 18 26 41 4 21 18 45 33 57
l26 20 -28 30 c-34 35 -41 37 -50 11 -3 -11 -12 -18 -19 -15 -14 6 -80 -21
-118 -47 -14 -11 -33 -19 -42 -19 -9 0 -16 -7 -16 -15 0 -8 -7 -15 -15 -15 -8
0 -20 -9 -27 -20 -7 -11 -21 -20 -30 -20 -10 0 -23 -9 -30 -20 -7 -11 -21 -20
-30 -20 -10 0 -22 -9 -28 -20 -6 -11 -20 -20 -32 -20 -19 0 -122 -60 -160 -94
-10 -9 -24 -16 -32 -16 -8 0 -21 -9 -29 -21 -8 -11 -18 -16 -21 -11 -8 13 -56
-9 -56 -25 0 -19 -20 -26 -36 -12 -13 11 -19 9 -33 -9 -13 -17 -19 -20 -28
-11 -9 9 -16 9 -29 -2 -15 -12 -19 -11 -32 9 -8 13 -25 22 -39 22 -13 0 -34 5
-45 11 -14 8 -23 8 -31 0 -17 -17 -25 -13 -29 12 -2 16 -9 22 -25 21 -13 0
-23 4 -23 10 0 14 -59 61 -87 70 -23 7 -93 80 -93 97 0 17 -62 89 -77 89 -7 0
-13 7 -13 15 0 8 -13 29 -30 47 -16 17 -30 39 -30 48 0 10 -7 24 -16 31 -20
17 -74 110 -74 128 0 8 -7 22 -16 32 -15 16 -15 20 0 41 22 30 22 145 0 176
-18 26 -11 42 18 42 15 0 18 4 13 18 -18 44 -18 53 4 59 18 5 21 13 21 59 0
49 4 58 35 90 21 21 35 44 35 60 0 13 7 27 16 31 18 7 91 83 132 137 15 20 33
33 41 31 7 -3 35 13 61 35 26 22 53 40 59 40 6 0 11 7 11 15 0 18 12 19 28 3
9 -9 15 -9 24 0 7 7 22 12 34 12 13 0 26 5 29 10 3 6 17 10 30 10 13 0 31 10
40 22 13 19 18 21 35 10 26 -16 172 -16 189 1 10 10 16 8 28 -10 15 -23 53
-32 53 -13 0 19 18 10 23 -11 4 -16 11 -20 26 -16 11 3 25 -1 32 -9 6 -8 19
-14 28 -14 9 0 22 -5 28 -11 6 -6 17 -11 24 -12 32 -5 169 -123 169 -145 0 -7
6 -12 13 -12 8 0 28 -24 47 -52 18 -29 45 -71 60 -93 42 -62 60 -101 60 -134
0 -16 4 -32 9 -35 16 -10 23 -112 21 -297 l-2 -185 37 -32 c20 -18 41 -30 46
-26 6 3 13 -3 16 -15 6 -25 18 -27 27 -6 3 8 12 15 19 15 22 0 73 72 81 114 4
22 14 49 22 60 21 30 20 236 -1 277 -11 19 -14 41 -9 64 5 26 2 36 -9 40 -9 4
-17 27 -21 61 -7 61 -23 101 -62 154 -14 19 -28 48 -31 63 -3 15 -14 32 -24
38 -11 5 -19 16 -19 24 0 21 -69 109 -92 117 -10 4 -25 24 -34 43 -8 19 -21
35 -29 35 -8 0 -36 21 -62 48 -48 47 -241 162 -273 162 -9 0 -20 4 -25 9 -6 5
-28 12 -50 15 -22 3 -67 10 -100 15 -123 19 -170 23 -178 15z"/>
<path d="M1636 7125 c-16 -8 -38 -12 -52 -9 -15 4 -24 2 -24 -5 0 -6 -7 -11
-16 -11 -9 0 -44 -15 -78 -32 -97 -52 -242 -203 -304 -318 -21 -40 -45 -150
-45 -210 0 -57 25 -175 44 -213 54 -102 126 -187 213 -252 15 -11 34 -27 44
-36 22 -22 101 -59 123 -59 10 0 21 -5 25 -11 3 -6 16 -8 29 -5 14 4 28 0 35
-9 9 -11 32 -15 81 -15 58 0 70 3 79 20 9 16 14 18 29 8 22 -13 84 -3 101 17
7 8 25 15 41 15 19 0 34 8 45 24 8 14 22 22 29 20 17 -7 31 3 118 91 121 121
128 132 134 174 4 31 10 41 24 41 23 0 24 13 4 30 -21 18 -19 29 10 40 27 10
34 43 13 57 -8 5 -13 30 -13 63 0 33 5 58 13 63 22 14 14 60 -15 83 -26 21
-27 23 -10 36 17 13 16 15 -12 36 -19 14 -35 38 -43 65 -6 23 -20 51 -30 62
-10 11 -39 44 -64 73 -26 29 -57 55 -70 58 -13 3 -26 15 -29 25 -4 12 -16 19
-31 19 -13 0 -24 5 -24 10 0 6 -9 10 -19 10 -11 0 -22 4 -26 10 -3 5 -12 7
-20 3 -9 -3 -15 1 -15 10 0 17 -46 26 -180 33 -64 3 -92 1 -114 -11z m377
-267 c84 -81 87 -180 11 -257 l-44 -44 -69 5 c-64 5 -73 8 -120 49 -52 45 -74
85 -52 98 9 6 9 15 1 35 -12 33 2 66 29 66 10 0 21 9 24 20 7 25 64 50 116 50
22 0 43 5 46 10 9 15 11 14 58 -32z"/>
<path d="M5789 7124 c-8 -9 -21 -13 -35 -10 -14 4 -37 -2 -59 -14 -20 -11 -42
-20 -50 -20 -8 0 -15 -4 -15 -9 0 -5 -10 -11 -23 -15 -19 -4 -107 -70 -142
-106 -59 -61 -77 -83 -104 -135 -17 -33 -35 -67 -40 -75 -25 -46 -31 -63 -31
-91 0 -16 -5 -39 -11 -51 -17 -32 -15 -105 4 -126 13 -14 15 -28 11 -52 -5
-25 -3 -35 9 -42 10 -5 17 -17 17 -26 0 -28 46 -117 76 -149 16 -17 42 -47 57
-67 28 -36 96 -86 117 -86 6 0 21 -11 33 -25 14 -16 37 -28 62 -32 22 -3 45
-12 52 -21 8 -10 22 -13 42 -9 19 4 33 1 41 -8 9 -11 33 -15 80 -15 47 0 71 4
80 15 8 9 22 12 41 8 29 -6 94 18 101 37 2 5 19 11 38 13 19 2 36 9 38 15 2 6
28 25 57 42 56 32 135 112 135 136 0 8 6 14 14 14 8 0 18 10 21 23 4 12 16 29
27 37 12 10 23 39 31 78 6 34 15 62 19 62 25 0 12 286 -15 319 -7 9 -24 41
-37 71 -25 58 -34 71 -97 135 -66 68 -107 99 -187 138 -51 25 -84 35 -100 31
-16 -4 -25 0 -29 10 -9 23 -208 23 -228 0z m379 -264 c27 -13 42 -27 42 -39 0
-11 5 -21 12 -23 17 -6 15 -130 -3 -152 -55 -68 -87 -86 -150 -86 -82 0 -143
47 -154 119 -3 20 -10 49 -15 66 -8 25 -7 32 9 45 10 8 21 23 24 33 10 27 85
57 143 57 30 0 67 -8 92 -20z"/>
<path d="M6715 11953 c8 -32 75 -145 123 -206 18 -23 40 -54 50 -69 19 -32 30
-35 39 -13 3 9 -10 39 -31 70 -20 30 -36 58 -36 62 0 12 -125 172 -139 178
-10 4 -12 -1 -6 -22z"/>
</g>
</svg>
